<svg width="16" height="20" viewBox="0 0 16 20" fill="none" xmlns="http://www.w3.org/2000/svg">
<path d="M8 0C5.24746 0 3 2.24746 3 5C3 7.75254 5.24746 10 8 10C10.7525 10 13 7.75254 13 5C13 2.24746 10.7525 0 8 0ZM8 1.5C9.94188 1.5 11.5 3.05812 11.5 5C11.5 6.94188 9.94188 8.5 8 8.5C6.05812 8.5 4.5 6.94188 4.5 5C4.5 3.05812 6.05812 1.5 8 1.5ZM2.25 12C1.01625 12 0 13.0162 0 14.25V14.8496C0 16.32 0.932357 17.639 2.35449 18.5459C3.77663 19.4528 5.72242 20 8 20C10.2776 20 12.2234 19.4528 13.6455 18.5459C15.0676 17.639 16 16.32 16 14.8496V14.25C16 13.0162 14.9838 12 13.75 12H2.25ZM2.25 13.5H13.75C14.1733 13.5 14.5 13.8267 14.5 14.25V14.8496C14.5 15.6822 13.9637 16.5639 12.8389 17.2812C11.714 17.9986 10.0344 18.5 8 18.5C5.96558 18.5 4.286 17.9986 3.16113 17.2812C2.03627 16.5639 1.5 15.6822 1.5 14.8496V14.25C1.5 13.8267 1.82675 13.5 2.25 13.5Z" fill="url(#paint0_linear_10846_534)"/>
<defs>
<linearGradient id="paint0_linear_10846_534" x1="4.4" y1="13.8281" x2="17.0215" y2="12.1697" gradientUnits="userSpaceOnUse">
<stop stop-color="#C42E66"/>
<stop offset="1" stop-color="#D23852"/>
</linearGradient>
</defs>
</svg>
