<svg width="120" height="120" viewBox="0 0 120 120" fill="none" xmlns="http://www.w3.org/2000/svg">
<path d="M12.5 97.5V37.5H107.5V97.5C107.5 103.022 103.022 107.5 97.5 107.5H22.5C16.9775 107.5 12.5 103.022 12.5 97.5Z" fill="#FFE4E8"/>
<path d="M107.5 27.5V42.5H12.5V27.5C12.5 21.9775 16.9775 17.5 22.5 17.5H97.5C103.022 17.5 107.5 21.9775 107.5 27.5Z" fill="url(#paint0_linear_8768_21019)"/>
<path d="M90 27.5C90 31.64 86.6425 35 82.5 35C78.3575 35 75 31.64 75 27.5C75 23.36 78.3575 20 82.5 20C86.6425 20 90 23.36 90 27.5ZM45 27.5C45 31.64 41.6425 35 37.5 35C33.3575 35 30 31.64 30 27.5C30 23.36 33.3575 20 37.5 20C41.6425 20 45 23.36 45 27.5Z" fill="#9A001A"/>
<path d="M82.5 10C79.7375 10 77.5 12.2425 77.5 15V27.5C77.5 30.26 79.7375 32.5 82.5 32.5C85.2575 32.5 87.5 30.26 87.5 27.5V15C87.5 12.2425 85.2575 10 82.5 10ZM37.5 10C34.7375 10 32.5 12.2425 32.5 15V27.5C32.5 30.26 34.7375 32.5 37.5 32.5C40.2575 32.5 42.5 30.26 42.5 27.5V15C42.5 12.2425 40.2575 10 37.5 10Z" fill="#B0BEC5"/>
<path d="M60 55L64.8975 67.6675L78.665 68.355L67.9325 76.875L71.6625 90L60 82.63L48.33 90L52.0675 76.875L41.3325 68.355L55.0975 67.6675L60 55Z" fill="url(#paint1_linear_8768_21019)"/>
<path d="M120 95C120 108.807 108.805 120 95 120C81.1925 120 70 108.807 70 95C70 81.1925 81.1925 70 95 70C108.805 70 120 81.1925 120 95Z" fill="#43A047"/>
<path d="M106.23 83.375L92.0049 97.6275L85.1849 90.825L79.8774 96.1425L92.0149 108.253L111.547 88.6825L106.23 83.375Z" fill="#DCEDC8"/>
<defs>
<linearGradient id="paint0_linear_8768_21019" x1="38.625" y1="34.7852" x2="93.4869" y2="0.54315" gradientUnits="userSpaceOnUse">
<stop stop-color="#C42E66"/>
<stop offset="1" stop-color="#D23852"/>
</linearGradient>
<linearGradient id="paint1_linear_8768_21019" x1="51.599" y1="79.1992" x2="80.6648" y2="74.107" gradientUnits="userSpaceOnUse">
<stop stop-color="#C42E66"/>
<stop offset="1" stop-color="#D23852"/>
</linearGradient>
</defs>
</svg>
