<svg width="20" height="20" viewBox="0 0 20 20" fill="none" xmlns="http://www.w3.org/2000/svg">
<path d="M3.77083 0.25C1.83603 0.25 0.25 1.83603 0.25 3.77083V16.2292C0.25 18.164 1.83603 19.75 3.77083 19.75H16.2292C18.164 19.75 19.75 18.164 19.75 16.2292V3.77083C19.75 1.83603 18.164 0.25 16.2292 0.25H3.77083ZM3.77083 1.875H16.2292C17.2854 1.875 18.125 2.71455 18.125 3.77083V4.58333H1.875V3.77083C1.875 2.71455 2.71455 1.875 3.77083 1.875ZM1.875 6.20833H18.125V16.2292C18.125 17.2854 17.2854 18.125 16.2292 18.125H3.77083C2.71455 18.125 1.875 17.2854 1.875 16.2292V6.20833ZM5.125 8.91667C4.83768 8.91667 4.56213 9.0308 4.35897 9.23397C4.1558 9.43713 4.04167 9.71268 4.04167 10C4.04167 10.2873 4.1558 10.5629 4.35897 10.766C4.56213 10.9692 4.83768 11.0833 5.125 11.0833C5.41232 11.0833 5.68787 10.9692 5.89103 10.766C6.0942 10.5629 6.20833 10.2873 6.20833 10C6.20833 9.71268 6.0942 9.43713 5.89103 9.23397C5.68787 9.0308 5.41232 8.91667 5.125 8.91667ZM10 8.91667C9.71268 8.91667 9.43713 9.0308 9.23397 9.23397C9.0308 9.43713 8.91667 9.71268 8.91667 10C8.91667 10.2873 9.0308 10.5629 9.23397 10.766C9.43713 10.9692 9.71268 11.0833 10 11.0833C10.2873 11.0833 10.5629 10.9692 10.766 10.766C10.9692 10.5629 11.0833 10.2873 11.0833 10C11.0833 9.71268 10.9692 9.43713 10.766 9.23397C10.5629 9.0308 10.2873 8.91667 10 8.91667ZM14.875 8.91667C14.5877 8.91667 14.3121 9.0308 14.109 9.23397C13.9058 9.43713 13.7917 9.71268 13.7917 10C13.7917 10.2873 13.9058 10.5629 14.109 10.766C14.3121 10.9692 14.5877 11.0833 14.875 11.0833C15.1623 11.0833 15.4379 10.9692 15.641 10.766C15.8442 10.5629 15.9583 10.2873 15.9583 10C15.9583 9.71268 15.8442 9.43713 15.641 9.23397C15.4379 9.0308 15.1623 8.91667 14.875 8.91667ZM10 12.7083C9.56902 12.7083 9.1557 12.8795 8.85095 13.1843C8.5462 13.489 8.375 13.9024 8.375 14.3333C8.375 14.7643 8.5462 15.1776 8.85095 15.4824C9.1557 15.7871 9.56902 15.9583 10 15.9583C10.431 15.9583 10.8443 15.7871 11.149 15.4824C11.4538 15.1776 11.625 14.7643 11.625 14.3333C11.625 13.9024 11.4538 13.489 11.149 13.1843C10.8443 12.8795 10.431 12.7083 10 12.7083ZM5.125 13.25C4.83768 13.25 4.56213 13.3641 4.35897 13.5673C4.1558 13.7705 4.04167 14.046 4.04167 14.3333C4.04167 14.6207 4.1558 14.8962 4.35897 15.0994C4.56213 15.3025 4.83768 15.4167 5.125 15.4167C5.41232 15.4167 5.68787 15.3025 5.89103 15.0994C6.0942 14.8962 6.20833 14.6207 6.20833 14.3333C6.20833 14.046 6.0942 13.7705 5.89103 13.5673C5.68787 13.3641 5.41232 13.25 5.125 13.25Z" fill="#98A2B3"/>
</svg>
