<svg width="20" height="20" viewBox="0 0 20 20" fill="none" xmlns="http://www.w3.org/2000/svg">
<path d="M2.6875 0.25C1.35094 0.25 0.25 1.35094 0.25 2.6875V4.3125C0.25 5.64906 1.35094 6.75 2.6875 6.75H7.02083C8.3574 6.75 9.45833 5.64906 9.45833 4.3125V2.6875C9.45833 1.35094 8.3574 0.25 7.02083 0.25H2.6875ZM12.9792 0.25C11.6426 0.25 10.5417 1.35094 10.5417 2.6875V9.72917C10.5417 11.0657 11.6426 12.1667 12.9792 12.1667H17.3125C18.6491 12.1667 19.75 11.0657 19.75 9.72917V2.6875C19.75 1.35094 18.6491 0.25 17.3125 0.25H12.9792ZM2.6875 1.875H7.02083C7.47935 1.875 7.83333 2.22898 7.83333 2.6875V4.3125C7.83333 4.77102 7.47935 5.125 7.02083 5.125H2.6875C2.22898 5.125 1.875 4.77102 1.875 4.3125V2.6875C1.875 2.22898 2.22898 1.875 2.6875 1.875ZM12.9792 1.875H17.3125C17.771 1.875 18.125 2.22898 18.125 2.6875V9.72917C18.125 10.1877 17.771 10.5417 17.3125 10.5417H12.9792C12.5206 10.5417 12.1667 10.1877 12.1667 9.72917V2.6875C12.1667 2.22898 12.5206 1.875 12.9792 1.875ZM2.6875 7.83333C1.35094 7.83333 0.25 8.93427 0.25 10.2708V17.3125C0.25 18.6491 1.35094 19.75 2.6875 19.75H7.02083C8.3574 19.75 9.45833 18.6491 9.45833 17.3125V10.2708C9.45833 8.93427 8.3574 7.83333 7.02083 7.83333H2.6875ZM2.6875 9.45833H7.02083C7.47935 9.45833 7.83333 9.81231 7.83333 10.2708V17.3125C7.83333 17.771 7.47935 18.125 7.02083 18.125H2.6875C2.22898 18.125 1.875 17.771 1.875 17.3125V10.2708C1.875 9.81231 2.22898 9.45833 2.6875 9.45833ZM12.9792 13.25C11.6426 13.25 10.5417 14.3509 10.5417 15.6875V17.3125C10.5417 18.6491 11.6426 19.75 12.9792 19.75H17.3125C18.6491 19.75 19.75 18.6491 19.75 17.3125V15.6875C19.75 14.3509 18.6491 13.25 17.3125 13.25H12.9792ZM12.9792 14.875H17.3125C17.771 14.875 18.125 15.229 18.125 15.6875V17.3125C18.125 17.771 17.771 18.125 17.3125 18.125H12.9792C12.5206 18.125 12.1667 17.771 12.1667 17.3125V15.6875C12.1667 15.229 12.5206 14.875 12.9792 14.875Z" fill="#98A2B3"/>
</svg>
