<svg width="20" height="22" viewBox="0 0 20 22" fill="none" xmlns="http://www.w3.org/2000/svg">
<path d="M1 5H3M3 5H19M3 5V19C3 19.5304 3.21071 20.0391 3.58579 20.4142C3.96086 20.7893 4.46957 21 5 21H15C15.5304 21 16.0391 20.7893 16.4142 20.4142C16.7893 20.0391 17 19.5304 17 19V5H3ZM6 5V3C6 2.46957 6.21071 1.96086 6.58579 1.58579C6.96086 1.21071 7.46957 1 8 1H12C12.5304 1 13.0391 1.21071 13.4142 1.58579C13.7893 1.96086 14 2.46957 14 3V5M8 10V16M12 10V16" stroke="url(#paint0_linear_10909_5164)" stroke-width="2" stroke-linecap="round" stroke-linejoin="round"/>
<defs>
<linearGradient id="paint0_linear_10909_5164" x1="5.95" y1="14.8281" x2="20.0854" y2="12.7386" gradientUnits="userSpaceOnUse">
<stop stop-color="#C42E66"/>
<stop offset="1" stop-color="#D23852"/>
</linearGradient>
</defs>
</svg>
