<svg width="20" height="22" viewBox="0 0 20 22" fill="none" xmlns="http://www.w3.org/2000/svg">
<path d="M10 0.722656C9.37779 0.722656 8.75581 0.92505 8.2417 1.32992C8.24135 1.32992 8.24099 1.32992 8.24064 1.32992L1.79883 6.40592C0.821717 7.17597 0.25 8.35266 0.25 9.59668V19.3953C0.25 20.4326 1.10857 21.2912 2.14583 21.2912H17.8542C18.8914 21.2912 19.75 20.4326 19.75 19.3953V9.59668C19.75 8.35266 19.1783 7.17597 18.2012 6.40592L11.7583 1.32992C11.2442 0.92505 10.6222 0.722656 10 0.722656ZM10 2.34342C10.2653 2.34342 10.5307 2.43159 10.7533 2.60685L17.1961 7.68286C17.7833 8.14564 18.125 8.84953 18.125 9.59668V19.3953C18.125 19.5552 18.014 19.6662 17.8542 19.6662H15.4167C15.7157 19.6662 15.9583 19.4235 15.9583 19.1245V17.7703V14.5203C15.9583 13.9452 15.7459 13.4211 15.4071 13.0022C15.4037 12.9819 15.3994 12.9618 15.3945 12.9419L14.875 10.717V10.716C14.6188 9.61696 13.6298 8.83284 12.502 8.83284H7.49797C6.36986 8.83284 5.38042 9.61723 5.12394 10.716L4.60449 12.9419C4.60026 12.9612 4.59673 12.9806 4.59391 13.0001C4.25432 13.4193 4.04167 13.9444 4.04167 14.5203V17.7703V19.1245C4.04167 19.4235 4.28433 19.6662 4.58333 19.6662H2.14583C1.98602 19.6662 1.875 19.5552 1.875 19.3953V9.59668C1.875 8.84953 2.21665 8.14564 2.80387 7.68286L9.24675 2.60685C9.4693 2.43159 9.73469 2.34342 10 2.34342ZM7.49797 10.4578H12.502C12.8841 10.4578 13.2058 10.7136 13.2923 11.0852C13.2927 11.0852 13.293 11.0852 13.2934 11.0852L13.5261 12.0839C13.5243 12.0839 13.5227 12.0828 13.5208 12.0828H6.47917C6.47734 12.0828 6.4757 12.0839 6.47388 12.0839L6.70662 11.0852C6.79356 10.7128 7.11591 10.4578 7.49797 10.4578ZM6.47917 13.7078H13.5208C13.9794 13.7078 14.3333 14.0618 14.3333 14.5203V16.9578H5.66667V14.5203C5.66667 14.0618 6.02065 13.7078 6.47917 13.7078ZM7.5625 14.7912C7.34701 14.7912 7.14035 14.8768 6.98798 15.0292C6.8356 15.1815 6.75 15.3882 6.75 15.6037C6.75 15.8192 6.8356 16.0258 6.98798 16.1782C7.14035 16.3306 7.34701 16.4162 7.5625 16.4162C7.77799 16.4162 7.98465 16.3306 8.13702 16.1782C8.2894 16.0258 8.375 15.8192 8.375 15.6037C8.375 15.3882 8.2894 15.1815 8.13702 15.0292C7.98465 14.8768 7.77799 14.7912 7.5625 14.7912ZM12.4375 14.7912C12.222 14.7912 12.0154 14.8768 11.863 15.0292C11.7106 15.1815 11.625 15.3882 11.625 15.6037C11.625 15.8192 11.7106 16.0258 11.863 16.1782C12.0154 16.3306 12.222 16.4162 12.4375 16.4162C12.653 16.4162 12.8597 16.3306 13.012 16.1782C13.1644 16.0258 13.25 15.8192 13.25 15.6037C13.25 15.3882 13.1644 15.1815 13.012 15.0292C12.8597 14.8768 12.653 14.7912 12.4375 14.7912ZM6.20833 18.5828H13.7917V19.1245C13.7917 19.4235 14.0343 19.6662 14.3333 19.6662H5.66667C5.96567 19.6662 6.20833 19.4235 6.20833 19.1245V18.5828Z" fill="#98A2B3"/>
</svg>
