<svg width="152" height="152" viewBox="0 0 152 152" fill="none" xmlns="http://www.w3.org/2000/svg">
<path d="M75.2066 19.374C67.7322 19.374 60.331 20.8462 53.4256 23.7065C46.5202 26.5668 40.2458 30.7593 34.9606 36.0445C29.6754 41.3296 25.483 47.604 22.6227 54.5095C19.7623 61.4149 18.2902 68.8161 18.2902 76.2904C18.2902 83.7648 19.7623 91.166 22.6227 98.0714C25.483 104.977 29.6754 111.251 34.9606 116.536C40.2458 121.822 46.5202 126.014 53.4256 128.874C60.331 131.735 67.7322 133.207 75.2066 133.207C82.6809 133.207 90.0821 131.735 96.9875 128.874C103.893 126.014 110.167 121.822 115.453 116.536C120.738 111.251 124.93 104.977 127.79 98.0714C130.651 91.166 132.123 83.7648 132.123 76.2904C132.123 68.8161 130.651 61.4149 127.79 54.5095C124.93 47.604 120.738 41.3296 115.453 36.0445C110.167 30.7593 103.893 26.5668 96.9875 23.7065C90.0821 20.8462 82.6809 19.374 75.2066 19.374Z" fill="#F9DBD2"/>
<path d="M30.6477 85.0877C30.2906 85.0877 29.948 85.2296 29.6955 85.4821C29.4429 85.7347 29.301 86.0773 29.301 86.4344C29.301 86.7916 29.4429 87.1341 29.6955 87.3867C29.948 87.6393 30.2906 87.7811 30.6477 87.7811C31.0049 87.7811 31.3475 87.6393 31.6 87.3867C31.8526 87.1341 31.9945 86.7916 31.9945 86.4344C31.9945 86.0773 31.8526 85.7347 31.6 85.4821C31.3475 85.2296 31.0049 85.0877 30.6477 85.0877ZM120.404 47.5908C120.267 47.5908 120.132 47.6177 120.006 47.67C119.88 47.7222 119.765 47.7988 119.669 47.8953C119.572 47.9919 119.495 48.1065 119.443 48.2326C119.391 48.3588 119.364 48.494 119.364 48.6305C119.364 48.767 119.391 48.9022 119.443 49.0284C119.495 49.1545 119.572 49.2691 119.669 49.3657C119.765 49.4622 119.88 49.5388 120.006 49.591C120.132 49.6433 120.267 49.6702 120.404 49.6702C120.54 49.6702 120.675 49.6433 120.802 49.591C120.928 49.5388 121.042 49.4622 121.139 49.3657C121.235 49.2691 121.312 49.1545 121.364 49.0284C121.417 48.9022 121.443 48.767 121.443 48.6305C121.443 48.494 121.417 48.3588 121.364 48.2326C121.312 48.1065 121.235 47.9919 121.139 47.8953C121.042 47.7988 120.928 47.7222 120.802 47.67C120.675 47.6177 120.54 47.5908 120.404 47.5908Z" fill="white"/>
<path d="M116.406 18.3541C116.229 18.3541 116.054 18.3889 115.891 18.4566C115.727 18.5243 115.579 18.6235 115.454 18.7485C115.329 18.8736 115.23 19.022 115.162 19.1854C115.094 19.3488 115.059 19.5239 115.059 19.7008C115.059 19.8776 115.094 20.0528 115.162 20.2161C115.23 20.3795 115.329 20.528 115.454 20.6531C115.579 20.7781 115.727 20.8773 115.891 20.945C116.054 21.0127 116.229 21.0475 116.406 21.0475C116.583 21.0475 116.758 21.0127 116.922 20.945C117.085 20.8773 117.233 20.7781 117.358 20.6531C117.484 20.528 117.583 20.3795 117.65 20.2161C117.718 20.0528 117.753 19.8776 117.753 19.7008C117.753 19.5239 117.718 19.3488 117.65 19.1854C117.583 19.022 117.484 18.8736 117.358 18.7485C117.233 18.6235 117.085 18.5243 116.922 18.4566C116.758 18.3889 116.583 18.3541 116.406 18.3541ZM31.4002 96.7526C31.043 96.7526 30.7005 96.8945 30.4479 97.1471C30.1954 97.3996 30.0535 97.7422 30.0535 98.0993C30.0535 98.4565 30.1954 98.7991 30.4479 99.0516C30.7005 99.3042 31.043 99.4461 31.4002 99.4461C31.7574 99.4461 32.0999 99.3042 32.3525 99.0516C32.605 98.7991 32.7469 98.4565 32.7469 98.0993C32.7469 97.7422 32.605 97.3996 32.3525 97.1471C32.0999 96.8945 31.7574 96.7526 31.4002 96.7526ZM124.677 16.8857C123.061 16.8857 121.512 17.5274 120.37 18.6696C119.228 19.8119 118.586 21.361 118.586 22.9764C118.586 24.5917 119.228 26.1409 120.37 27.2831C121.512 28.4253 123.061 29.067 124.677 29.067C126.292 29.067 127.841 28.4253 128.983 27.2831C130.125 26.1409 130.767 24.5917 130.767 22.9764C130.767 21.361 130.125 19.8119 128.983 18.6696C127.841 17.5274 126.292 16.8857 124.677 16.8857Z" fill="#F1BC19"/>
<path d="M130.767 33.8994C130.008 33.8994 129.279 34.2011 128.742 34.7382C128.205 35.2752 127.903 36.0036 127.903 36.7631C127.903 37.5226 128.205 38.251 128.742 38.788C129.279 39.3251 130.008 39.6268 130.767 39.6268C131.527 39.6268 132.255 39.3251 132.792 38.788C133.329 38.251 133.631 37.5226 133.631 36.7631C133.631 36.0036 133.329 35.2752 132.792 34.7382C132.255 34.2011 131.527 33.8994 130.767 33.8994Z" fill="#EE3E54"/>
<path d="M117.11 113.57C116.35 113.57 115.622 113.872 115.085 114.409C114.548 114.946 114.246 115.674 114.246 116.434C114.246 117.193 114.548 117.922 115.085 118.459C115.622 118.996 116.35 119.297 117.11 119.297C117.869 119.297 118.598 118.996 119.135 118.459C119.672 117.922 119.974 117.193 119.974 116.434C119.974 115.674 119.672 114.946 119.135 114.409C118.598 113.872 117.869 113.57 117.11 113.57ZM21.1052 90.6621C20.3054 90.6621 19.5134 90.8196 18.7744 91.1257C18.0355 91.4318 17.3641 91.8804 16.7985 92.446C16.2329 93.0116 15.7843 93.683 15.4782 94.422C15.1721 95.1609 15.0146 95.9529 15.0146 96.7527C15.0146 97.5526 15.1721 98.3446 15.4782 99.0835C15.7843 99.8225 16.2329 100.494 16.7985 101.059C17.3641 101.625 18.0355 102.074 18.7744 102.38C19.5134 102.686 20.3054 102.843 21.1052 102.843C21.9051 102.843 22.6971 102.686 23.436 102.38C24.175 102.074 24.8464 101.625 25.412 101.059C25.9775 100.494 26.4262 99.8225 26.7322 99.0835C27.0383 98.3446 27.1959 97.5526 27.1959 96.7527C27.1959 95.9529 27.0383 95.1609 26.7322 94.422C26.4262 93.683 25.9775 93.0116 25.412 92.446C24.8464 91.8804 24.175 91.4318 23.436 91.1257C22.6971 90.8196 21.9051 90.6621 21.1052 90.6621Z" fill="#FBCD59"/>
<path d="M36.667 130.574C35.9075 130.574 35.1791 130.876 34.642 131.413C34.105 131.95 33.8033 132.678 33.8033 133.438C33.8033 134.197 34.105 134.926 34.642 135.463C35.1791 136 35.9075 136.302 36.667 136.302C37.4265 136.302 38.1548 136 38.6919 135.463C39.2289 134.926 39.5306 134.197 39.5306 133.438C39.5306 132.678 39.2289 131.95 38.6919 131.413C38.1548 130.876 37.4265 130.574 36.667 130.574Z" fill="#EE3E54"/>
<path d="M115.061 43.6016C114.337 43.6016 113.643 43.8892 113.131 44.4011C112.619 44.9131 112.331 45.6075 112.331 46.3315C112.331 47.0555 112.619 47.7499 113.131 48.2618C113.643 48.7738 114.337 49.0614 115.061 49.0614C115.785 49.0614 116.479 48.7738 116.991 48.2618C117.503 47.7499 117.791 47.0555 117.791 46.3315C117.791 45.6075 117.503 44.9131 116.991 44.4011C116.479 43.8892 115.785 43.6016 115.061 43.6016ZM26.7915 74.4849C26.2843 74.4849 25.7821 74.5848 25.3135 74.7789C24.8449 74.973 24.4191 75.2575 24.0604 75.6162C23.7018 75.9748 23.4173 76.4006 23.2232 76.8692C23.0291 77.3378 22.9292 77.84 22.9292 78.3472C22.9292 78.8545 23.0291 79.3567 23.2232 79.8253C23.4173 80.2939 23.7018 80.7197 24.0604 81.0783C24.4191 81.437 24.8449 81.7215 25.3135 81.9156C25.7821 82.1097 26.2843 82.2096 26.7915 82.2096C27.2987 82.2096 27.801 82.1097 28.2696 81.9156C28.7382 81.7215 29.1639 81.437 29.5226 81.0783C29.8812 80.7197 30.1657 80.2939 30.3598 79.8253C30.5539 79.3567 30.6538 78.8545 30.6538 78.3472C30.6538 77.84 30.5539 77.3378 30.3598 76.8692C30.1657 76.4006 29.8812 75.9748 29.5226 75.6162C29.1639 75.2575 28.7382 74.973 28.2696 74.7789C27.801 74.5848 27.2987 74.4849 26.7915 74.4849Z" fill="white"/>
<path d="M64.3811 106.856C62.396 106.856 60.4899 106.059 59.1508 104.67C57.8938 103.364 57.2371 101.662 57.3025 99.8761L57.304 45.9328C57.2371 44.1909 57.8801 42.5508 59.1098 41.274C60.461 39.8695 62.3808 39.0654 64.3811 39.0654H99.4536C103.396 39.0654 106.716 42.1252 106.856 45.8872V99.7469C106.721 103.717 103.468 106.856 99.4551 106.856H64.3811Z" fill="#FFFEF4"/>
<path d="M99.4551 40.128C102.819 40.128 105.654 42.709 105.792 45.8888L105.794 99.674C105.676 103.105 102.893 105.792 99.4551 105.792H64.3811C62.6848 105.792 61.0569 105.114 59.9169 103.93C58.862 102.834 58.3103 101.408 58.3665 99.9142L58.368 99.8746V99.8351V45.9329V45.8918L58.3665 45.8508C58.3118 44.4433 58.8483 43.0798 59.8774 42.0113C61.028 40.815 62.6711 40.128 64.3827 40.128H99.4551ZM99.4551 38H64.3811C59.8105 38 56.0728 41.6039 56.24 45.9329V99.8351C56.0728 104.316 59.8105 107.92 64.3811 107.92H99.4551C104.026 107.92 107.765 104.316 107.92 99.747V45.8462C107.763 41.6039 104.026 38 99.4551 38Z" fill="#472B29"/>
<path d="M95 101.08H69.16C66.6413 101.08 64.6 99.039 64.6 96.5204V50.9204C64.6 48.4017 66.6413 46.3604 69.16 46.3604H95C97.5186 46.3604 99.56 48.4017 99.56 50.9204V96.5204C99.56 99.039 97.5186 101.08 95 101.08Z" fill="#E1E0D8"/>
<path d="M99.56 61.5596C99.1404 61.5596 98.8 61.2191 98.8 60.7996V50.9196C98.8 48.8235 97.096 47.1196 95 47.1196C94.5804 47.1196 94.24 46.7791 94.24 46.3596C94.24 45.9401 94.5804 45.5996 95 45.5996C97.9336 45.5996 100.32 47.986 100.32 50.9196V60.7996C100.32 61.2191 99.9795 61.5596 99.56 61.5596ZM95 101.84H69.16C66.2264 101.84 63.84 99.4532 63.84 96.5196V50.9196C63.84 47.986 66.2264 45.5996 69.16 45.5996C69.5795 45.5996 69.92 45.9401 69.92 46.3596C69.92 46.7791 69.5795 47.1196 69.16 47.1196C67.0639 47.1196 65.36 48.8235 65.36 50.9196V96.5196C65.36 98.6157 67.0639 100.32 69.16 100.32H95C97.096 100.32 98.8 98.6157 98.8 96.5196V82.8396C98.8 82.4201 99.1404 82.0796 99.56 82.0796C99.9795 82.0796 100.32 82.4201 100.32 82.8396V96.5196C100.32 99.4532 97.9336 101.84 95 101.84Z" fill="#472B29"/>
<path d="M91.96 89.9154V38.7598H84.36V90.1646V112.243L88.3257 109.017L91.96 112.243V89.9154Z" fill="#EE3E54"/>
<path d="M92.72 113.932L88.3044 110.016L83.6 113.84V38H92.72V113.932ZM85.12 39.52V110.645L88.3454 108.02L91.2 110.553V39.52H85.12Z" fill="#472B29"/>
<path d="M88.2862 86.8818C87.3047 86.8818 86.3328 87.0752 85.426 87.4507C84.5193 87.8263 83.6954 88.3769 83.0014 89.0709C82.3073 89.7649 81.7568 90.5888 81.3812 91.4956C81.0056 92.4023 80.8123 93.3742 80.8123 94.3557C80.8123 95.3372 81.0056 96.309 81.3812 97.2158C81.7568 98.1226 82.3073 98.9465 83.0014 99.6405C83.6954 100.334 84.5193 100.885 85.426 101.261C86.3328 101.636 87.3047 101.83 88.2862 101.83C89.2676 101.83 90.2395 101.636 91.1463 101.261C92.053 100.885 92.877 100.334 93.571 99.6405C94.265 98.9465 94.8155 98.1226 95.1911 97.2158C95.5667 96.309 95.76 95.3372 95.76 94.3557C95.76 93.3742 95.5667 92.4023 95.1911 91.4956C94.8155 90.5888 94.265 89.7649 93.571 89.0709C92.877 88.3769 92.053 87.8263 91.1463 87.4507C90.2395 87.0752 89.2676 86.8818 88.2862 86.8818Z" fill="#F1BC19"/>
<path d="M88.2861 102.59C83.7459 102.59 80.0508 98.8961 80.0508 94.3559C80.0508 89.8157 83.7459 86.1221 88.2861 86.1221C92.8264 86.1221 96.52 89.8157 96.52 94.3559C96.52 98.8961 92.8264 102.59 88.2861 102.59ZM88.2861 87.6421C84.5819 87.6421 81.5708 90.6532 81.5708 94.3559C81.5708 98.0586 84.5819 101.07 88.2861 101.07C91.9889 101.07 95 98.0586 95 94.3559C95 90.6532 91.9889 87.6421 88.2861 87.6421Z" fill="#472B29"/>
<path d="M88.2862 99.1697C86.6704 99.1697 85.1702 98.3671 84.2749 97.0204C84.1594 96.8456 84.205 96.6085 84.3798 96.493C84.5561 96.3759 84.7917 96.4231 84.9072 96.5979C85.6611 97.7318 86.9243 98.4082 88.2862 98.4082C88.7133 98.4082 89.1343 98.3428 89.5311 98.2136C89.7332 98.1467 89.9445 98.2577 90.0083 98.4568C90.0737 98.656 89.9658 98.8703 89.7651 98.9341C89.2924 99.0907 88.7939 99.1697 88.2862 99.1697ZM92.0284 97.1162C91.9585 97.1162 91.8871 97.0964 91.8232 97.0569C91.6469 96.9444 91.5952 96.7088 91.7077 96.531C92.1211 95.882 92.34 95.1296 92.34 94.3559C92.34 92.12 90.5221 90.302 88.2862 90.302C87.6554 90.302 87.0504 90.4419 86.4911 90.7185C86.3071 90.8143 86.0776 90.7368 85.9819 90.5452C85.8891 90.3583 85.9667 90.1303 86.1551 90.036C86.8209 89.7077 87.5368 89.542 88.2847 89.542C90.9386 89.542 93.0985 91.702 93.0985 94.3559C93.0985 95.274 92.8386 96.1677 92.3476 96.9399C92.2762 97.0539 92.1531 97.1162 92.0284 97.1162ZM83.8508 94.7359C83.6411 94.7359 83.4708 94.5656 83.4708 94.3559C83.4708 93.605 83.6395 92.883 83.9739 92.2112C84.0667 92.0257 84.2931 91.9482 84.4831 92.0409C84.6701 92.1352 84.7476 92.3616 84.6534 92.5501C84.3722 93.1156 84.2308 93.7236 84.2308 94.3559C84.2308 94.5656 84.0606 94.7359 83.8508 94.7359ZM71.589 67.4884C75.3631 67.4884 78.432 70.5588 78.432 74.3314V74.6278C78.432 78.402 75.3616 81.4708 71.589 81.4708H43.9311C40.1569 81.4708 37.088 78.4004 37.088 74.6278V74.3314C37.088 70.5572 40.1584 67.4884 43.9311 67.4884H71.589ZM71.589 65.3604H43.9311C38.9971 65.3604 34.96 69.3975 34.96 74.3314V74.6278C34.96 79.5632 38.9971 83.6004 43.9311 83.6004H71.5875C76.5229 83.6004 80.56 79.5632 80.56 74.6293V74.3329C80.56 69.3975 76.5229 65.3604 71.589 65.3604Z" fill="#472B29"/>
<path d="M55.5515 91.6557C49.8135 91.6557 45.144 86.9877 45.144 81.2482V59.301H44.08C42.5007 59.301 41.7939 58.1184 41.7939 56.945C41.7939 56.2503 42.0463 55.58 42.4855 55.1042C42.9947 54.554 43.7487 54.2637 44.6698 54.2637H73.1227C74.8707 54.2637 75.3373 55.8156 75.3373 56.7337C75.3373 57.6867 74.8372 59.2994 72.9615 59.2994H71.8975V81.2467C71.8975 86.9847 67.2296 91.6541 61.4901 91.6541H55.5515V91.6557Z" fill="#F1BC19"/>
<path d="M73.1211 55.3282C74.1608 55.3282 74.2717 56.3116 74.2717 56.7342C74.2717 57.1856 74.1441 58.2375 72.96 58.2375H70.832V60.3655V81.2488C70.832 86.4 66.6413 90.5922 61.4885 90.5922H55.5499C50.3986 90.5922 46.2065 86.4016 46.2065 81.2488V60.3655V58.2375H44.08C43.0175 58.2375 42.8579 57.4288 42.8579 56.9455C42.8579 56.5153 43.0069 56.1064 43.2668 55.8252C43.5723 55.4939 44.045 55.3267 44.6697 55.3267H73.1211M73.1211 53.2002H44.6697C39.52 53.2002 39.52 60.3655 44.08 60.3655V81.2488C44.08 87.5583 49.2419 92.7202 55.5514 92.7202H61.4901C67.7981 92.7202 72.96 87.5583 72.96 81.2488V60.3655C77.52 60.3655 77.52 53.2002 73.1211 53.2002Z" fill="#472B29"/>
<path d="M69.312 105.856H63.4113C62.0449 103.721 59.7588 99.1235 59.549 91.9795H57.6217H57.1307H55.2034C54.9936 99.1235 52.7075 103.72 51.341 105.856H45.6046C44.5694 105.856 43.5875 106.537 43.4355 107.538C43.2501 108.76 44.2244 109.821 45.4404 109.821H69.1524C70.1875 109.821 71.1694 109.14 71.3214 108.139C71.5054 106.917 70.531 105.856 69.312 105.856Z" fill="#F1BC19"/>
<path d="M69.1509 110.884H45.4389C44.5284 110.884 43.6696 110.489 43.0783 109.803C42.5023 109.133 42.2469 108.25 42.3791 107.376C42.6041 105.901 43.9903 104.79 45.6015 104.79H50.7452C52.0509 102.591 53.9494 98.3286 54.1379 91.9477L54.1683 90.9141H60.5827L60.6131 91.9477C60.8 98.3317 62.7 102.591 64.0057 104.79H69.312C70.2225 104.79 71.0813 105.185 71.6726 105.872C72.2487 106.541 72.504 107.426 72.3718 108.298C72.1483 109.773 70.7651 110.884 69.1509 110.884ZM45.6031 106.92C45.0528 106.92 44.5512 107.268 44.4859 107.698C44.4327 108.049 44.5923 108.3 44.6941 108.417C44.8795 108.634 45.1516 108.757 45.4404 108.757H69.1524C69.7027 108.757 70.2043 108.409 70.2681 107.981C70.3213 107.628 70.1617 107.379 70.0599 107.26C69.8744 107.043 69.6008 106.92 69.3136 106.92H62.8307L62.5161 106.43C61.1709 104.33 58.9289 99.8699 58.5322 93.0436H56.2203C55.822 99.8653 53.5815 104.328 52.2363 106.429L51.9217 106.92H45.6031Z" fill="#472B29"/>
<path d="M62.7471 96.3683H52.2317C51.1799 96.3683 50.3196 95.5079 50.3196 94.4561C50.3196 93.4043 51.1799 92.5439 52.2317 92.5439H62.7471C63.7989 92.5439 64.6593 93.4043 64.6593 94.4561C64.6593 95.5079 63.7989 96.3683 62.7471 96.3683Z" fill="#F1BC19"/>
<path d="M62.7471 97.4318H52.2318C50.5917 97.4318 49.2556 96.0957 49.2556 94.4557C49.2556 92.8156 50.5917 91.4795 52.2318 91.4795H62.7471C64.3872 91.4795 65.7233 92.8156 65.7233 94.4557C65.7233 96.0957 64.3872 97.4318 62.7471 97.4318ZM52.2318 93.6075C51.7712 93.6075 51.3836 93.9951 51.3836 94.4557C51.3836 94.9238 51.7636 95.3038 52.2318 95.3038H62.7471C63.2153 95.3038 63.5953 94.9238 63.5953 94.4557C63.5953 93.9951 63.2077 93.6075 62.7471 93.6075H52.2318Z" fill="#472B29"/>
<path d="M99.56 79.6102C99.1405 79.6102 98.8 79.2697 98.8 78.8502V72.9602C98.8 72.5407 99.1405 72.2002 99.56 72.2002C99.9795 72.2002 100.32 72.5407 100.32 72.9602V78.8502C100.32 79.2697 99.9795 79.6102 99.56 79.6102Z" fill="#472B29"/>
<path d="M99.56 69.1596C99.1405 69.1596 98.8 68.8191 98.8 68.3996V65.3596C98.8 64.9401 99.1405 64.5996 99.56 64.5996C99.9795 64.5996 100.32 64.9401 100.32 65.3596V68.3996C100.32 68.8191 99.9795 69.1596 99.56 69.1596Z" fill="#472B29"/>
<path d="M55.48 59.2798H43.32C42.9005 59.2798 42.56 58.9393 42.56 58.5198C42.56 58.1002 42.9005 57.7598 43.32 57.7598H55.48C55.8995 57.7598 56.24 58.1002 56.24 58.5198C56.24 58.9393 55.8995 59.2798 55.48 59.2798Z" fill="#472B29"/>
<path d="M63.08 59.2798H58.52C58.1005 59.2798 57.76 58.9393 57.76 58.5198C57.76 58.1002 58.1005 57.7598 58.52 57.7598H63.08C63.4995 57.7598 63.84 58.1002 63.84 58.5198C63.84 58.9393 63.4995 59.2798 63.08 59.2798Z" fill="#472B29"/>
<path d="M73.72 59.2798H66.12C65.7005 59.2798 65.36 58.9393 65.36 58.5198C65.36 58.1002 65.7005 57.7598 66.12 57.7598H73.72C74.1395 57.7598 74.48 58.1002 74.48 58.5198C74.48 58.9393 74.1395 59.2798 73.72 59.2798Z" fill="#472B29"/>
</svg>
