<svg width="179" height="179" viewBox="0 0 179 179" fill="none" xmlns="http://www.w3.org/2000/svg">
<g opacity="0.2" clip-path="url(#clip0_8768_19259)">
<path d="M89.5 179C87.4378 179 85.7708 177.329 85.7708 175.271V11.1872C85.7708 9.12867 87.4378 7.45801 89.5 7.45801C91.5622 7.45801 93.2291 9.12867 93.2291 11.1872V175.271C93.2291 177.329 91.5622 179 89.5 179Z" fill="#FDD835"/>
<path d="M171.542 96.9583H3.72917C1.66694 96.9583 0 95.2877 0 93.2292C0 91.1707 1.66694 89.5 3.72917 89.5H171.542C173.604 89.5 175.271 91.1707 175.271 93.2292C175.271 95.2877 173.604 96.9583 171.542 96.9583Z" fill="#FBC02D"/>
<path d="M149.167 156.625C148.212 156.625 147.257 156.259 146.53 155.532L27.1968 36.1986C25.7387 34.7405 25.7387 32.3837 27.1968 30.9256C28.6549 29.4675 31.0117 29.4675 32.4698 30.9256L151.803 150.259C153.261 151.717 153.261 154.074 151.803 155.532C151.076 156.259 150.121 156.625 149.167 156.625Z" fill="#FBC02D"/>
<path d="M106.072 137.979C104.581 137.979 103.171 137.077 102.597 135.6L61.975 31.1836C61.2292 29.2631 62.1801 27.1002 64.0969 26.3543C66.0174 25.6085 68.1803 26.5557 68.9225 28.4762L109.544 132.893C110.29 134.813 109.339 136.976 107.422 137.722C106.982 137.901 106.524 137.979 106.072 137.979Z" fill="#FBC02D"/>
<path d="M59.6667 18.4337C58.1676 18.4337 56.7542 17.5201 56.1836 16.0322L51.9883 5.06094C51.2537 3.13669 52.2158 0.981236 54.1363 0.246591C56.068 -0.488055 58.216 0.47407 58.9507 2.39832L63.146 13.3695C63.8806 15.2938 62.9185 17.4492 60.998 18.1839C60.558 18.3517 60.1105 18.4337 59.6667 18.4337Z" fill="#FBC02D"/>
<path d="M68.337 153.272C67.882 153.272 67.4196 153.19 66.9721 153.011C65.0553 152.254 64.1118 150.091 64.8688 148.174L67.9529 140.343C68.7099 138.426 70.8802 137.483 72.7896 138.24C74.7064 138.997 75.6499 141.16 74.8928 143.077L71.8088 150.908C71.2308 152.373 69.8249 153.272 68.337 153.272Z" fill="#FBC02D"/>
<path d="M18.6458 126.792C17.184 126.792 15.8004 125.926 15.2038 124.494C14.4095 122.593 15.3082 120.411 17.2101 119.617L151.46 63.6791C153.358 62.8886 155.544 63.7836 156.338 65.6854C157.132 67.5873 156.233 69.7689 154.332 70.5632L20.0815 126.501C19.6117 126.702 19.1269 126.792 18.6458 126.792Z" fill="#FBC02D"/>
<path d="M145.531 118.96C145.053 118.96 144.572 118.867 144.106 118.677L135.992 115.32C134.086 114.533 133.183 112.352 133.97 110.446C134.761 108.541 136.946 107.649 138.841 108.425L146.955 111.781C148.861 112.568 149.763 114.75 148.976 116.655C148.384 118.091 146.996 118.96 145.531 118.96Z" fill="#FDD835"/>
<path d="M123.062 109.664C122.585 109.664 122.104 109.571 121.634 109.377L43.3217 76.974C41.4198 76.1871 40.5174 74.0056 41.3042 72.1037C42.0948 70.1981 44.2652 69.2993 46.1783 70.0825L124.491 102.485C126.393 103.272 127.295 105.454 126.508 107.355C125.915 108.795 124.528 109.664 123.062 109.664Z" fill="#FDD835"/>
<path d="M26.1042 69.545C25.6269 69.545 25.1458 69.4517 24.6759 69.2578L17.2176 66.1701C15.3157 65.3832 14.4133 63.2016 15.2001 61.2998C15.987 59.3942 18.1648 58.5029 20.0741 59.2786L27.5325 62.3663C29.4343 63.1532 30.3368 65.3347 29.5499 67.2366C28.957 68.6761 27.5698 69.545 26.1042 69.545Z" fill="#FDD835"/>
<path d="M52.2083 134.25C51.2536 134.25 50.299 133.884 49.5718 133.157C48.1137 131.699 48.1137 129.342 49.5718 127.884L146.53 30.9256C147.988 29.4675 150.345 29.4675 151.803 30.9256C153.261 32.3837 153.261 34.7405 151.803 36.1986L54.8448 133.157C54.1176 133.884 53.163 134.25 52.2083 134.25Z" fill="#FDD835"/>
<path d="M77.3019 130.521C76.8581 130.521 76.4069 130.443 75.9669 130.271C74.0426 129.533 73.0842 127.378 73.8226 125.453L113.863 21.0367C114.597 19.1124 116.756 18.154 118.681 18.8887C120.605 19.6233 121.563 21.7825 120.825 23.7068L80.7849 128.123C80.2144 129.611 78.801 130.521 77.3019 130.521Z" fill="#FBC02D"/>
<path d="M89.5 85.7705C85.3793 85.7705 82.0417 89.1081 82.0417 93.2288C82.0417 97.3496 85.3793 100.687 89.5 100.687C93.6207 100.687 96.9584 97.3496 96.9584 93.2288C96.9584 89.1081 93.6207 85.7705 89.5 85.7705Z" fill="#FFECB3"/>
<path d="M123.062 11.1878C125.122 11.1878 126.792 9.51822 126.792 7.45866C126.792 5.3991 125.122 3.72949 123.062 3.72949C121.003 3.72949 119.333 5.3991 119.333 7.45866C119.333 9.51822 121.003 11.1878 123.062 11.1878Z" fill="#FBC02D"/>
<path d="M111.875 152.896C113.935 152.896 115.604 151.226 115.604 149.167C115.604 147.107 113.935 145.438 111.875 145.438C109.815 145.438 108.146 147.107 108.146 149.167C108.146 151.226 109.815 152.896 111.875 152.896Z" fill="#FBC02D"/>
</g>
<defs>
<clipPath id="clip0_8768_19259">
<rect width="179" height="179" fill="white"/>
</clipPath>
</defs>
</svg>
