<svg width="105" height="105" viewBox="0 0 105 105" fill="none" xmlns="http://www.w3.org/2000/svg">
<path d="M50.3125 51.4062C50.3125 53.2175 48.8425 54.6875 47.0312 54.6875C45.2178 54.6875 43.75 53.2175 43.75 51.4062C43.75 49.595 45.2178 48.125 47.0312 48.125C48.8425 48.125 50.3125 49.595 50.3125 51.4062ZM21.875 51.4062C21.875 49.595 20.405 48.125 18.5938 48.125C16.7825 48.125 15.3125 49.595 15.3125 51.4062C15.3125 53.2175 16.7825 54.6875 18.5938 54.6875C20.405 54.6875 21.875 53.2175 21.875 51.4062Z" fill="#FFA726"/>
<path d="M89.6875 38.2812C89.6875 40.0925 88.2175 41.5625 86.4062 41.5625C84.5928 41.5625 83.125 40.0925 83.125 38.2812C83.125 36.47 84.5928 35 86.4062 35C88.2175 35 89.6875 36.47 89.6875 38.2812ZM61.25 38.2812C61.25 36.47 59.78 35 57.9688 35C56.1575 35 54.6875 36.47 54.6875 38.2812C54.6875 40.0925 56.1575 41.5625 57.9688 41.5625C59.78 41.5625 61.25 40.0925 61.25 38.2812Z" fill="#EF8D3C"/>
<path d="M80.3906 56.875L72.1875 58.5594L63.9844 56.875C63.9844 56.875 45.9375 60.2153 45.9375 78.75H98.4375C98.4375 60.2853 80.3906 56.875 80.3906 56.875Z" fill="#2196F3"/>
<path d="M72.1875 65.625C63.4375 65.625 63.4375 56.875 63.4375 56.875V48.125H80.9375V56.875C80.9375 56.875 80.9375 65.625 72.1875 65.625Z" fill="#EF8D3C"/>
<path d="M87.5 26.25C87.5 13.3896 56.875 17.8762 56.875 26.25V39.5281C56.875 47.8931 63.7284 54.6875 72.1875 54.6875C80.6444 54.6875 87.5 47.8953 87.5 39.5281V26.25Z" fill="#FFAA45"/>
<path d="M41.5625 70C41.5625 70 41.5625 78.75 32.8125 78.75C24.0625 78.75 24.0625 70 24.0625 70" fill="#FF9800"/>
<path d="M41.0156 70L32.8125 71.6844L24.6094 70C24.6094 70 6.5625 73.3403 6.5625 91.875H59.0625C59.0625 73.4103 41.0156 70 41.0156 70Z" fill="#4FC3F7"/>
<path d="M72.3013 69.9998C78.9928 69.9998 84.5032 64.9861 85.3125 58.5154C83.3788 57.6448 81.806 57.1876 81.0382 56.9995C80.9703 61.7704 77.0897 65.6248 72.3013 65.6248C67.5085 65.6248 63.63 61.7704 63.5644 56.9951C62.7922 57.1832 61.2216 57.6361 59.2878 58.5001C60.0885 64.9795 65.6031 69.9998 72.3013 69.9998Z" fill="#0D47A1"/>
<path d="M32.8125 78.75C24.0625 78.75 24.0625 70 24.0625 70V61.25H41.5625V70C41.5625 70 41.5625 78.75 32.8125 78.75Z" fill="#FF9800"/>
<path d="M48.125 43.0498C48.125 30.1894 17.5 34.676 17.5 43.0498V52.6551C17.5 61.0201 24.3534 67.8123 32.8125 67.8123C41.2694 67.8123 48.125 61.0201 48.125 52.6529V43.0498Z" fill="#FFB74D"/>
<path d="M32.8125 83.1248C39.5041 83.1248 45.0144 78.1111 45.8238 71.6404C43.89 70.7698 42.3172 70.3126 41.5494 70.1245C41.4816 74.8954 37.6031 78.7498 32.8125 78.7498C28.0219 78.7498 24.1413 74.8954 24.0756 70.1201C23.3034 70.3082 21.7328 70.7611 19.7991 71.6251C20.5997 78.1045 26.1166 83.1248 32.8125 83.1248Z" fill="#01579B"/>
<path d="M72.1875 13.125C61.5562 13.125 54.6875 22.5597 54.6875 31.0012V35L59.0625 39.375V30.625L79.1875 24.0625L85.3125 30.625V39.375L89.6875 35V33.2303C89.6875 26.1909 87.8697 18.3488 79.1875 16.6228L77.4353 13.125H72.1875Z" fill="#424242"/>
<path d="M32.8125 26.25C22.1812 26.25 15.3125 35.6847 15.3125 44.1263V48.125L19.6875 52.5V43.75L39.8125 37.1875L45.9375 43.75V52.5L50.3125 48.125V46.3553C50.3125 39.3159 48.4947 31.4738 39.8125 29.7478L38.0603 26.25H32.8125Z" fill="#795548"/>
<path d="M76.5625 37.1875C76.5625 35.9822 77.5425 35 78.75 35C79.9575 35 80.9375 35.9822 80.9375 37.1875C80.9375 38.3928 79.9575 39.375 78.75 39.375C77.5425 39.375 76.5625 38.3928 76.5625 37.1875ZM63.4375 37.1875C63.4375 38.3928 64.4175 39.375 65.625 39.375C66.8325 39.375 67.8125 38.3928 67.8125 37.1875C67.8125 35.9822 66.8325 35 65.625 35C64.4175 35 63.4375 35.9822 63.4375 37.1875ZM37.1875 50.3125C37.1875 49.1072 38.1675 48.125 39.375 48.125C40.5825 48.125 41.5625 49.1072 41.5625 50.3125C41.5625 51.5178 40.5825 52.5 39.375 52.5C38.1675 52.5 37.1875 51.5178 37.1875 50.3125ZM24.0625 50.3125C24.0625 51.5178 25.0425 52.5 26.25 52.5C27.4575 52.5 28.4375 51.5178 28.4375 50.3125C28.4375 49.1072 27.4575 48.125 26.25 48.125C25.0425 48.125 24.0625 49.1072 24.0625 50.3125Z" fill="#784719"/>
<path d="M105 83.125C105 95.1562 95.1562 105 83.125 105C71.0938 105 61.25 95.1562 61.25 83.125C61.25 71.0938 71.0938 61.25 83.125 61.25C95.1562 61.25 105 71.0938 105 83.125Z" fill="#FFC107"/>
<path d="M83.125 67.8125C74.5938 67.8125 67.8125 74.5938 67.8125 83.125C67.8125 91.6562 74.5938 98.4375 83.125 98.4375C91.6562 98.4375 98.4375 91.6562 98.4375 83.125C98.4375 74.5938 91.6562 67.8125 83.125 67.8125ZM83.1272 91.875C78.0587 91.875 76.5297 88.515 76.5647 86.45H80.1478C80.2331 87.2353 80.8172 89.0269 83.0506 89.0269C85.4525 89.0269 86.1066 86.7825 86.1066 85.715C86.1066 82.7137 83.6237 82.4972 83.0506 82.4972C81.4494 82.4994 80.9375 83.125 80.9375 83.125H76.5625L78.8616 74.375H88.7316V77.2472H81.4341L80.7275 80.9375H80.7778C81.2656 80.4628 82.2041 79.8722 84.2362 79.8722C89.0444 79.8722 89.6875 84.5294 89.6875 85.715C89.6875 87.9791 87.9419 91.875 83.1272 91.875Z" fill="#FFE082"/>
</svg>
