<svg width="20" height="23" viewBox="0 0 20 23" fill="none" xmlns="http://www.w3.org/2000/svg">
<path d="M10.0244 0.000365327C9.83103 -0.00566959 9.64279 0.0632583 9.49902 0.192748C9.49902 0.192748 5.74508 3.50037 1.25 3.50037C1.05109 3.50039 0.86034 3.57941 0.719692 3.72006C0.579044 3.8607 0.50002 4.05146 0.5 4.25037V10.3802C0.5 13.7193 2.04471 19.2136 9.70898 22.4418C9.80111 22.4806 9.90005 22.5005 10 22.5005C10.1 22.5005 10.1989 22.4806 10.291 22.4418C17.9553 19.2136 19.5 13.7193 19.5 10.3802V4.25037C19.5 4.05146 19.421 3.8607 19.2803 3.72006C19.1397 3.57941 18.9489 3.50039 18.75 3.50037C14.2549 3.50037 10.501 0.192748 10.501 0.192748C10.3697 0.0745023 10.201 0.00637308 10.0244 0.000365327ZM10 1.71423C11.0315 2.54355 14.0556 4.66896 18 4.93787V10.3802C18 13.2514 16.8967 17.8832 10 20.9135C3.10328 17.8832 2 13.2514 2 10.3802V4.93787C5.94437 4.66896 8.96852 2.54355 10 1.71423ZM10 5.00037C8.35207 5.00037 7 6.35243 7 8.00037V9.14001C6.13178 9.45291 5.5 10.2803 5.5 11.2504V13.7504C5.5 14.9841 6.51625 16.0004 7.75 16.0004H12.25C13.4838 16.0004 14.5 14.9841 14.5 13.7504V11.2504C14.5 10.2803 13.8682 9.45291 13 9.14001V8.00037C13 6.35243 11.6479 5.00037 10 5.00037ZM10 6.50037C10.8371 6.50037 11.5 7.1633 11.5 8.00037V9.00037H8.5V8.00037C8.5 7.1633 9.16293 6.50037 10 6.50037ZM7.75 10.5004H12.25C12.6732 10.5004 13 10.8271 13 11.2504V13.7504C13 14.1736 12.6732 14.5004 12.25 14.5004H7.75C7.32675 14.5004 7 14.1736 7 13.7504V11.2504C7 10.8271 7.32675 10.5004 7.75 10.5004ZM10 11.5004C9.73478 11.5004 9.48043 11.6057 9.29289 11.7933C9.10536 11.9808 9 12.2351 9 12.5004C9 12.7656 9.10536 13.0199 9.29289 13.2075C9.48043 13.395 9.73478 13.5004 10 13.5004C10.2652 13.5004 10.5196 13.395 10.7071 13.2075C10.8946 13.0199 11 12.7656 11 12.5004C11 12.2351 10.8946 11.9808 10.7071 11.7933C10.5196 11.6057 10.2652 11.5004 10 11.5004Z" fill="url(#paint0_linear_10846_700)"/>
<defs>
<linearGradient id="paint0_linear_10846_700" x1="5.725" y1="15.557" x2="20.684" y2="13.4822" gradientUnits="userSpaceOnUse">
<stop stop-color="#C42E66"/>
<stop offset="1" stop-color="#D23852"/>
</linearGradient>
</defs>
</svg>
