<svg width="18" height="22" viewBox="0 0 18 22" fill="none" xmlns="http://www.w3.org/2000/svg">
<path d="M2.75 0C1.51625 0 0.5 1.01625 0.5 2.25V17.25C0.5 19.8644 2.63561 22 5.25 22H13C13.0994 22.0014 13.1981 21.983 13.2903 21.946C13.3825 21.9089 13.4664 21.8539 13.5372 21.7841C13.608 21.7143 13.6642 21.6312 13.7026 21.5395C13.7409 21.4478 13.7607 21.3494 13.7607 21.25C13.7607 21.1506 13.7409 21.0522 13.7026 20.9605C13.6642 20.8688 13.608 20.7857 13.5372 20.7159C13.4664 20.6461 13.3825 20.5911 13.2903 20.554C13.1981 20.517 13.0994 20.4986 13 20.5H5.25C3.44639 20.5 2 19.0536 2 17.25V16.75C2 16.3267 2.32675 16 2.75 16C3.17325 16 3.5 16.3267 3.5 16.75C3.49927 16.8061 3.50484 16.8621 3.5166 16.917C3.60464 18.0729 4.57332 19 5.75 19H15.75C16.9838 19 18 17.9838 18 16.75V4.25C18 3.01625 16.9838 2 15.75 2H4.97461C4.84715 0.883312 3.8983 0 2.75 0ZM2.75 1.5C3.17325 1.5 3.5 1.82675 3.5 2.25V2.75V14.6396C3.26395 14.5546 3.01373 14.5 2.75 14.5C2.48627 14.5 2.23605 14.5546 2 14.6396V2.25C2 1.82675 2.32675 1.5 2.75 1.5ZM5 3.5H15.75C16.1732 3.5 16.5 3.82675 16.5 4.25V16.75C16.5 17.1733 16.1732 17.5 15.75 17.5H5.75C5.32675 17.5 5 17.1733 5 16.75V3.5ZM7.72852 6.50879C7.62913 6.50738 7.53046 6.52574 7.43823 6.5628C7.34601 6.59986 7.26207 6.65489 7.19129 6.72467C7.12051 6.79445 7.06431 6.87761 7.02595 6.9693C6.98759 7.06099 6.96783 7.1594 6.96783 7.25879C6.96783 7.35818 6.98759 7.45659 7.02595 7.54828C7.06431 7.63997 7.12051 7.72313 7.19129 7.79291C7.26207 7.86269 7.34601 7.91771 7.43823 7.95477C7.53046 7.99183 7.62913 8.01019 7.72852 8.00879H13.7285C13.8279 8.01019 13.9266 7.99183 14.0188 7.95477C14.111 7.91771 14.195 7.86269 14.2657 7.79291C14.3365 7.72313 14.3927 7.63997 14.4311 7.54828C14.4694 7.45659 14.4892 7.35818 14.4892 7.25879C14.4892 7.1594 14.4694 7.06099 14.4311 6.9693C14.3927 6.87761 14.3365 6.79445 14.2657 6.72467C14.195 6.65489 14.111 6.59986 14.0188 6.5628C13.9266 6.52574 13.8279 6.50738 13.7285 6.50879H7.72852ZM7.75 10C7.65062 9.99859 7.55194 10.017 7.45972 10.054C7.36749 10.0911 7.28355 10.1461 7.21277 10.2159C7.142 10.2857 7.08579 10.3688 7.04743 10.4605C7.00907 10.5522 6.98932 10.6506 6.98932 10.75C6.98932 10.8494 7.00907 10.9478 7.04743 11.0395C7.08579 11.1312 7.142 11.2143 7.21277 11.2841C7.28355 11.3539 7.36749 11.4089 7.45972 11.446C7.55194 11.483 7.65062 11.5014 7.75 11.5H9.27734C9.37673 11.5014 9.4754 11.483 9.56763 11.446C9.65985 11.4089 9.74379 11.3539 9.81457 11.2841C9.88535 11.2143 9.94155 11.1312 9.97991 11.0395C10.0183 10.9478 10.038 10.8494 10.038 10.75C10.038 10.6506 10.0183 10.5522 9.97991 10.4605C9.94155 10.3688 9.88535 10.2857 9.81457 10.2159C9.74379 10.1461 9.65985 10.0911 9.56763 10.054C9.4754 10.017 9.37673 9.99859 9.27734 10H7.75ZM12.2773 10C12.178 9.99859 12.0793 10.017 11.9871 10.054C11.8948 10.0911 11.8109 10.1461 11.7401 10.2159C11.6693 10.2857 11.6131 10.3688 11.5748 10.4605C11.5364 10.5522 11.5167 10.6506 11.5167 10.75C11.5167 10.8494 11.5364 10.9478 11.5748 11.0395C11.6131 11.1312 11.6693 11.2143 11.7401 11.2841C11.8109 11.3539 11.8948 11.4089 11.9871 11.446C12.0793 11.483 12.178 11.5014 12.2773 11.5H13.75C13.8494 11.5014 13.9481 11.483 14.0403 11.446C14.1325 11.4089 14.2164 11.3539 14.2872 11.2841C14.358 11.2143 14.4142 11.1312 14.4526 11.0395C14.4909 10.9478 14.5107 10.8494 14.5107 10.75C14.5107 10.6506 14.4909 10.5522 14.4526 10.4605C14.4142 10.3688 14.358 10.2857 14.2872 10.2159C14.2164 10.1461 14.1325 10.0911 14.0403 10.054C13.9481 10.017 13.8494 9.99859 13.75 10H12.2773ZM7.77734 12.5C7.67796 12.4986 7.57929 12.517 7.48706 12.554C7.39484 12.5911 7.31089 12.6461 7.24012 12.7159C7.16934 12.7857 7.11314 12.8688 7.07478 12.9605C7.03642 13.0522 7.01666 13.1506 7.01666 13.25C7.01666 13.3494 7.03642 13.4478 7.07478 13.5395C7.11314 13.6312 7.16934 13.7143 7.24012 13.7841C7.31089 13.8539 7.39484 13.9089 7.48706 13.946C7.57929 13.983 7.67796 14.0014 7.77734 14H9.30371C9.4031 14.0014 9.50177 13.983 9.59399 13.946C9.68622 13.9089 9.77016 13.8539 9.84094 13.7841C9.91171 13.7143 9.96792 13.6312 10.0063 13.5395C10.0446 13.4478 10.0644 13.3494 10.0644 13.25C10.0644 13.1506 10.0446 13.0522 10.0063 12.9605C9.96792 12.8688 9.91171 12.7857 9.84094 12.7159C9.77016 12.6461 9.68622 12.5911 9.59399 12.554C9.50177 12.517 9.4031 12.4986 9.30371 12.5H7.77734ZM12.3037 12.5C12.2043 12.4986 12.1057 12.517 12.0134 12.554C11.9212 12.5911 11.8373 12.6461 11.7665 12.7159C11.6957 12.7857 11.6395 12.8688 11.6011 12.9605C11.5628 13.0522 11.543 13.1506 11.543 13.25C11.543 13.3494 11.5628 13.4478 11.6011 13.5395C11.6395 13.6312 11.6957 13.7143 11.7665 13.7841C11.8373 13.8539 11.9212 13.9089 12.0134 13.946C12.1057 13.983 12.2043 14.0014 12.3037 14H13.7773C13.8767 14.0014 13.9754 13.983 14.0676 13.946C14.1599 13.9089 14.2438 13.8539 14.3146 13.7841C14.3853 13.7143 14.4415 13.6312 14.4799 13.5395C14.5183 13.4478 14.538 13.3494 14.538 13.25C14.538 13.1506 14.5183 13.0522 14.4799 12.9605C14.4415 12.8688 14.3853 12.7857 14.3146 12.7159C14.2438 12.6461 14.1599 12.5911 14.0676 12.554C13.9754 12.517 13.8767 12.4986 13.7773 12.5H12.3037Z" fill="url(#paint0_linear_10846_190)"/>
<defs>
<linearGradient id="paint0_linear_10846_190" x1="5.3125" y1="15.211" x2="19.1199" y2="13.407" gradientUnits="userSpaceOnUse">
<stop stop-color="#C42E66"/>
<stop offset="1" stop-color="#D23852"/>
</linearGradient>
</defs>
</svg>
