<svg width="28" height="28" viewBox="0 0 28 28" fill="none" xmlns="http://www.w3.org/2000/svg">
<g clip-path="url(#clip0_8674_17281)">
<path d="M23.3333 21.5833H4.66667C4.02208 21.5833 3.5 21.0612 3.5 20.4167V4.66667C3.5 4.02208 4.02208 3.5 4.66667 3.5H23.3333C23.9779 3.5 24.5 4.02208 24.5 4.66667V20.4167C24.5 21.0612 23.9779 21.5833 23.3333 21.5833Z" fill="url(#paint0_radial_8674_17281)"/>
<path d="M9.91658 20.9997C12.1717 20.9997 13.9999 19.1715 13.9999 16.9163C13.9999 14.6612 12.1717 12.833 9.91658 12.833C7.66142 12.833 5.83325 14.6612 5.83325 16.9163C5.83325 19.1715 7.66142 20.9997 9.91658 20.9997Z" fill="white"/>
<path d="M8.75 16.333C6.81975 16.333 5.02367 16.6299 3.5 17.1351V23.333C3.5 23.9776 4.02208 24.4997 4.66667 24.4997H16.9943C18.0495 23.6655 18.6667 22.6628 18.6667 21.583C18.6667 18.6833 14.2269 16.333 8.75 16.333Z" fill="#21A366"/>
<path d="M18.0833 8.71875H19.8333V17.7721C19.8333 17.9436 19.7026 18.083 19.5416 18.083H18.3749C18.2139 18.083 18.0833 17.9436 18.0833 17.7721V8.71875Z" fill="url(#paint1_linear_8674_17281)"/>
<path d="M21.7812 10.2278C22.0215 9.89301 22.1667 9.48526 22.1667 9.04134C22.1667 8.00476 21.3909 7.15776 20.3899 7.02651C20.2651 6.34809 19.673 5.83301 18.9584 5.83301C18.2438 5.83301 17.6517 6.34809 17.5269 7.02651C16.5259 7.15776 15.7501 8.00476 15.7501 9.04134C15.7501 9.48526 15.8953 9.89301 16.1357 10.2278C15.5558 10.5878 15.1667 11.2253 15.1667 11.958C15.1667 13.0856 16.0808 13.9997 17.2084 13.9997C17.244 13.9997 17.2772 13.9909 17.3122 13.9892C17.5502 14.6728 18.1937 15.1663 18.9584 15.1663C19.7232 15.1663 20.3666 14.6728 20.6046 13.9892C20.6396 13.9909 20.6728 13.9997 20.7084 13.9997C21.836 13.9997 22.7501 13.0856 22.7501 11.958C22.7501 11.2253 22.361 10.5878 21.7812 10.2278Z" fill="url(#paint2_linear_8674_17281)"/>
<path d="M24.5 18.0837V18.667C23.3333 17.5003 21.5833 16.917 18.9583 16.917C16.3497 16.917 13.4534 18.6448 11.3213 20.0005C9.68625 21.04 7.78517 21.5837 5.84792 21.5837H3.5V23.3337C3.5 23.9782 4.02208 24.5003 4.66667 24.5003H23.3333C23.9779 24.5003 24.5 23.9782 24.5 23.3337V18.0837Z" fill="url(#paint3_linear_8674_17281)"/>
<path d="M23.3333 21.5833H4.66667C4.02208 21.5833 3.5 21.0613 3.5 20.4167V4.66667C3.5 4.02208 4.02208 3.5 4.66667 3.5H23.3333C23.9779 3.5 24.5 4.02208 24.5 4.66667V20.4167C24.5 21.0613 23.9779 21.5833 23.3333 21.5833Z" fill="url(#paint4_radial_8674_17281)"/>
<path d="M8.75 16.333C6.81975 16.333 5.02367 16.6299 3.5 17.1351V23.333C3.5 23.9776 4.02208 24.4997 4.66667 24.4997H16.9943C18.0495 23.6655 18.6667 22.6628 18.6667 21.583C18.6667 18.6833 14.2269 16.333 8.75 16.333Z" fill="url(#paint5_linear_8674_17281)"/>
<path d="M21.7812 10.2278C22.0215 9.89301 22.1667 9.48526 22.1667 9.04134C22.1667 8.00476 21.3909 7.15776 20.3899 7.02651C20.2651 6.34809 19.673 5.83301 18.9584 5.83301C18.2438 5.83301 17.6517 6.34809 17.5269 7.02651C16.5259 7.15776 15.7501 8.00476 15.7501 9.04134C15.7501 9.48526 15.8953 9.89301 16.1357 10.2278C15.5558 10.5878 15.1667 11.2253 15.1667 11.958C15.1667 13.0856 16.0808 13.9997 17.2084 13.9997C17.244 13.9997 17.2772 13.9909 17.3122 13.9892C17.4505 14.3858 17.7276 14.7148 18.0834 14.9243V17.7721C18.0834 17.9436 18.2141 18.083 18.3751 18.083H19.5417C19.7027 18.083 19.8334 17.9436 19.8334 17.7721V14.9243C20.1892 14.7148 20.4663 14.3858 20.6046 13.9892C20.6396 13.9909 20.6728 13.9997 20.7084 13.9997C21.836 13.9997 22.7501 13.0856 22.7501 11.958C22.7501 11.2253 22.361 10.5878 21.7812 10.2278Z" fill="url(#paint6_linear_8674_17281)"/>
<path d="M24.5 18.0837V18.667C23.3333 17.5003 21.5833 16.917 18.9583 16.917C16.3497 16.917 13.4534 18.6448 11.3213 20.0005C9.68625 21.04 7.78517 21.5837 5.84792 21.5837H3.5V23.3337C3.5 23.9782 4.02208 24.5003 4.66667 24.5003H23.3333C23.9779 24.5003 24.5 23.9782 24.5 23.3337V18.0837Z" fill="url(#paint7_linear_8674_17281)"/>
<path d="M11.6666 8.74967C11.6666 7.13617 10.3611 5.83301 8.74992 5.83301C7.13875 5.83301 5.83325 7.13617 5.83325 8.74967C5.83325 10.3608 7.13875 11.6663 8.74992 11.6663C10.3611 11.6663 11.6666 10.3608 11.6666 8.74967Z" fill="url(#paint8_radial_8674_17281)"/>
</g>
<defs>
<radialGradient id="paint0_radial_8674_17281" cx="0" cy="0" r="1" gradientUnits="userSpaceOnUse" gradientTransform="translate(9.94525 16.8881) scale(18.8784)">
<stop offset="0.169" stop-color="#FAEEAE"/>
<stop offset="0.388" stop-color="#FAC5D9"/>
<stop offset="0.558" stop-color="#ECCEE8"/>
<stop offset="0.807" stop-color="#DCD7F8"/>
<stop offset="1" stop-color="#D7DAFE"/>
</radialGradient>
<linearGradient id="paint1_linear_8674_17281" x1="18.9583" y1="16.8749" x2="18.9583" y2="14.9727" gradientUnits="userSpaceOnUse">
<stop stop-color="#C26715"/>
<stop offset="0.508" stop-color="#B85515"/>
<stop offset="1" stop-color="#AD3F16"/>
</linearGradient>
<linearGradient id="paint2_linear_8674_17281" x1="17.8168" y1="5.48476" x2="19.5878" y2="15.5274" gradientUnits="userSpaceOnUse">
<stop stop-color="#21AD64"/>
<stop offset="1" stop-color="#088242"/>
</linearGradient>
<linearGradient id="paint3_linear_8674_17281" x1="14" y1="11.8192" x2="14" y2="25.6046" gradientUnits="userSpaceOnUse">
<stop stop-color="#21AD64"/>
<stop offset="1" stop-color="#088242"/>
</linearGradient>
<radialGradient id="paint4_radial_8674_17281" cx="0" cy="0" r="1" gradientUnits="userSpaceOnUse" gradientTransform="translate(8.73717 8.63275) scale(19.8736)">
<stop stop-color="#7B83EB"/>
<stop offset="1" stop-color="#5961C3"/>
</radialGradient>
<linearGradient id="paint5_linear_8674_17281" x1="11.0833" y1="16.1078" x2="11.0833" y2="23.9368" gradientUnits="userSpaceOnUse">
<stop stop-color="#5C65D6"/>
<stop offset="0.999" stop-color="#464EB0"/>
</linearGradient>
<linearGradient id="paint6_linear_8674_17281" x1="16.7452" y1="5.22226" x2="18.8802" y2="11.0865" gradientUnits="userSpaceOnUse">
<stop stop-color="#3940A4"/>
<stop offset="1" stop-color="#293091"/>
</linearGradient>
<linearGradient id="paint7_linear_8674_17281" x1="14" y1="18.1058" x2="14" y2="27.7419" gradientUnits="userSpaceOnUse">
<stop stop-color="#3940A4"/>
<stop offset="1" stop-color="#293091"/>
</linearGradient>
<radialGradient id="paint8_radial_8674_17281" cx="0" cy="0" r="1" gradientUnits="userSpaceOnUse" gradientTransform="translate(10.8295 12.3891) scale(5.57608)">
<stop stop-color="#6D75D6"/>
<stop offset="0.123" stop-color="#8189DE"/>
<stop offset="0.384" stop-color="#A7ADEC"/>
<stop offset="0.625" stop-color="#C3C7F6"/>
<stop offset="0.838" stop-color="#D3D6FD"/>
<stop offset="1" stop-color="#D9DCFF"/>
</radialGradient>
<clipPath id="clip0_8674_17281">
<rect width="28" height="28" fill="white"/>
</clipPath>
</defs>
</svg>
