<svg width="18" height="22" viewBox="0 0 18 22" fill="none" xmlns="http://www.w3.org/2000/svg">
<path d="M9.00004 0.166992C6.01812 0.166992 3.58337 2.60174 3.58337 5.58366C3.58337 8.56557 6.01812 11.0003 9.00004 11.0003C11.982 11.0003 14.4167 8.56557 14.4167 5.58366C14.4167 2.60174 11.982 0.166992 9.00004 0.166992ZM9.00004 1.79199C11.1037 1.79199 12.7917 3.47995 12.7917 5.58366C12.7917 7.68736 11.1037 9.37532 9.00004 9.37532C6.89634 9.37532 5.20838 7.68736 5.20838 5.58366C5.20838 3.47995 6.89634 1.79199 9.00004 1.79199ZM2.77087 13.167C1.43431 13.167 0.333374 14.2679 0.333374 15.6045V16.2541C0.333374 17.847 1.34343 19.2759 2.88407 20.2584C4.42472 21.2409 6.53266 21.8337 9.00004 21.8337C11.4674 21.8337 13.5754 21.2409 15.116 20.2584C16.6567 19.2759 17.6667 17.847 17.6667 16.2541V15.6045C17.6667 14.2679 16.5658 13.167 15.2292 13.167H2.77087ZM2.77087 14.792H15.2292C15.6877 14.792 16.0417 15.146 16.0417 15.6045V16.2541C16.0417 17.156 15.4608 18.1112 14.2422 18.8883C13.0235 19.6655 11.204 20.2087 9.00004 20.2087C6.79609 20.2087 4.97654 19.6655 3.75794 18.8883C2.53933 18.1112 1.95837 17.156 1.95837 16.2541V15.6045C1.95837 15.146 2.31235 14.792 2.77087 14.792Z" fill="#98A2B3"/>
</svg>
