<svg width="34" height="34" viewBox="0 0 34 34" fill="none" xmlns="http://www.w3.org/2000/svg">
<path d="M20.2259 7.71064C21.6347 7.98549 22.9294 8.67447 23.9443 9.68939C24.9592 10.7043 25.6482 11.999 25.923 13.4078M20.2259 1.94141C23.1528 2.26655 25.8821 3.57724 27.9657 5.65824C30.0493 7.73925 31.3634 10.4669 31.6923 13.3933M30.25 24.9029V29.2299C30.2516 29.6316 30.1693 30.0292 30.0084 30.3972C29.8475 30.7652 29.6115 31.0956 29.3155 31.3672C29.0195 31.6387 28.67 31.8455 28.2895 31.9742C27.909 32.1028 27.5058 32.1506 27.1057 32.1145C22.6675 31.6322 18.4043 30.1157 14.6586 27.6866C11.1738 25.4722 8.2192 22.5176 6.00478 19.0328C3.56725 15.2701 2.05032 10.9861 1.57689 6.52794C1.54085 6.1291 1.58825 5.72712 1.71608 5.3476C1.8439 4.96807 2.04935 4.61932 2.31934 4.32355C2.58934 4.02778 2.91796 3.79147 3.28428 3.62966C3.65061 3.46785 4.04661 3.38409 4.44709 3.38371H8.77401C9.47397 3.37682 10.1526 3.62469 10.6833 4.08112C11.214 4.53754 11.5607 5.17138 11.6586 5.86448C11.8413 7.24919 12.1799 8.6088 12.6682 9.91737C12.8623 10.4336 12.9043 10.9946 12.7893 11.534C12.6742 12.0734 12.407 12.5685 12.0192 12.9606L10.1875 14.7924C12.2407 18.4033 15.2304 21.393 18.8413 23.4462L20.673 21.6145C21.0652 21.2267 21.5603 20.9595 22.0997 20.8444C22.639 20.7294 23.2001 20.7714 23.7163 20.9654C25.0249 21.4537 26.3845 21.7924 27.7692 21.9751C28.4698 22.0739 29.1097 22.4268 29.5671 22.9666C30.0245 23.5065 30.2675 24.1956 30.25 24.9029Z" stroke="#98A2B3" stroke-width="2.88462" stroke-linecap="round" stroke-linejoin="round"/>
</svg>
