<svg width="207" height="51" viewBox="0 0 207 51" fill="none" xmlns="http://www.w3.org/2000/svg">
<path opacity="0.4" d="M39.5242 45.2473V22.7743H40.9638V45.2473H39.5242ZM43.3428 30.1922C43.2726 29.484 42.9712 28.9339 42.4386 28.5418C41.9061 28.1497 41.1833 27.9537 40.2703 27.9537C39.65 27.9537 39.1262 28.0414 38.699 28.217C38.2718 28.3867 37.944 28.6237 37.7158 28.9281C37.4934 29.2324 37.3822 29.5777 37.3822 29.9639C37.3705 30.2858 37.4378 30.5667 37.5841 30.8067C37.7363 31.0466 37.944 31.2544 38.2074 31.4299C38.4707 31.5997 38.7751 31.7489 39.1204 31.8776C39.4656 32.0005 39.8343 32.1059 40.2264 32.1937L41.8417 32.5799C42.6259 32.7555 43.3457 32.9896 44.0012 33.2822C44.6567 33.5748 45.2243 33.9347 45.7042 34.362C46.1841 34.7892 46.5557 35.2925 46.8191 35.8719C47.0883 36.4512 47.2258 37.1155 47.2317 37.8646C47.2258 38.9648 46.9449 39.9187 46.3889 40.7264C45.8388 41.5281 45.0429 42.1514 44.0012 42.5962C42.9653 43.0351 41.7159 43.2546 40.2528 43.2546C38.8014 43.2546 37.5373 43.0322 36.4605 42.5874C35.3895 42.1426 34.5526 41.4842 33.9498 40.6122C33.3529 39.7344 33.0398 38.6488 33.0105 37.3554H36.6887C36.7297 37.9582 36.9023 38.4615 37.2066 38.8653C37.5168 39.2633 37.9294 39.5647 38.4444 39.7695C38.9653 39.9685 39.5534 40.068 40.2089 40.068C40.8526 40.068 41.4115 39.9743 41.8856 39.7871C42.3655 39.5998 42.7371 39.3394 43.0004 39.0058C43.2638 38.6722 43.3955 38.2889 43.3955 37.8558C43.3955 37.452 43.2755 37.1126 43.0356 36.8375C42.8015 36.5624 42.4562 36.3283 41.9997 36.1352C41.5491 35.9421 40.996 35.7665 40.3406 35.6085L38.383 35.1169C36.8672 34.7482 35.6704 34.1718 34.7926 33.3875C33.9147 32.6033 33.4787 31.547 33.4846 30.2185C33.4787 29.13 33.7684 28.179 34.3536 27.3655C34.9447 26.552 35.7553 25.917 36.7853 25.4606C37.8153 25.0041 38.9857 24.7758 40.2967 24.7758C41.631 24.7758 42.7956 25.0041 43.7905 25.4606C44.7913 25.917 45.5696 26.552 46.1256 27.3655C46.6816 28.179 46.9683 29.1212 46.9859 30.1922H43.3428Z" fill="#12141D"/>
<path d="M65.9083 10.6529V41H59.4921V16.7431H59.3143L52.3647 21.0995V15.4094L59.8774 10.6529H65.9083ZM84.101 10.238C85.6618 10.238 87.1633 10.4998 88.6056 11.0233C90.0578 11.5469 91.3519 12.3817 92.4879 13.5276C93.6338 14.6735 94.5377 16.1948 95.1996 18.0915C95.8713 19.9783 96.2122 22.2948 96.222 25.0411C96.222 27.6194 95.9306 29.9211 95.3478 31.9462C94.7748 33.9615 93.95 35.6754 92.8732 37.0881C91.7964 38.5007 90.4974 39.5775 88.9761 40.3184C87.4548 41.0494 85.7556 41.4149 83.8787 41.4149C81.8536 41.4149 80.0656 41.0247 78.5146 40.2443C76.9637 39.454 75.714 38.3822 74.7657 37.0288C73.8272 35.6655 73.2592 34.1344 73.0616 32.4352H79.3889C79.6358 33.5416 80.1545 34.4011 80.9448 35.0136C81.735 35.6162 82.713 35.9175 83.8787 35.9175C85.8544 35.9175 87.356 35.058 88.3834 33.3391C89.4107 31.6104 89.9294 29.2444 89.9392 26.2413H89.7318C89.2774 27.1304 88.6649 27.896 87.8944 28.5381C87.1238 29.1704 86.2397 29.6593 85.242 30.0051C84.2541 30.3509 83.202 30.5237 82.0857 30.5237C80.2977 30.5237 78.7023 30.1039 77.2995 29.2642C75.8968 28.4245 74.7904 27.2687 73.9803 25.7968C73.1703 24.3249 72.7653 22.6455 72.7653 20.7587C72.7554 18.7237 73.2246 16.911 74.173 15.3205C75.1213 13.7301 76.445 12.4854 78.1442 11.5864C79.8532 10.6776 81.8388 10.2281 84.101 10.238ZM84.1454 15.2761C83.1477 15.2761 82.2586 15.5132 81.4782 15.9873C80.7077 16.4615 80.0952 17.0987 79.6408 17.8989C79.1962 18.699 78.9789 19.593 78.9888 20.5809C78.9888 21.5786 79.2061 22.4776 79.6408 23.2778C80.0853 24.0681 80.6879 24.7003 81.4486 25.1745C82.2191 25.6388 83.0983 25.8709 84.0862 25.8709C84.827 25.8709 85.5136 25.7326 86.1458 25.456C86.7781 25.1794 87.3263 24.7991 87.7906 24.315C88.2648 23.8211 88.6353 23.2531 88.902 22.611C89.1687 21.9688 89.3021 21.2872 89.3021 20.5661C89.2922 19.6079 89.065 18.7287 88.6204 17.9285C88.1759 17.1283 87.5634 16.4862 86.783 16.0022C86.0026 15.5181 85.1234 15.2761 84.1454 15.2761ZM111.647 10.238C113.208 10.238 114.71 10.4998 116.152 11.0233C117.604 11.5469 118.898 12.3817 120.034 13.5276C121.18 14.6735 122.084 16.1948 122.746 18.0915C123.418 19.9783 123.759 22.2948 123.769 25.0411C123.769 27.6194 123.477 29.9211 122.894 31.9462C122.321 33.9615 121.496 35.6754 120.42 37.0881C119.343 38.5007 118.044 39.5775 116.523 40.3184C115.001 41.0494 113.302 41.4149 111.425 41.4149C109.4 41.4149 107.612 41.0247 106.061 40.2443C104.51 39.454 103.261 38.3822 102.312 37.0288C101.374 35.6655 100.806 34.1344 100.608 32.4352H106.935C107.182 33.5416 107.701 34.4011 108.491 35.0136C109.282 35.6162 110.26 35.9175 111.425 35.9175C113.401 35.9175 114.902 35.058 115.93 33.3391C116.957 31.6104 117.476 29.2444 117.486 26.2413H117.278C116.824 27.1304 116.211 27.896 115.441 28.5381C114.67 29.1704 113.786 29.6593 112.788 30.0051C111.801 30.3509 110.749 30.5237 109.632 30.5237C107.844 30.5237 106.249 30.1039 104.846 29.2642C103.443 28.4245 102.337 27.2687 101.527 25.7968C100.717 24.3249 100.312 22.6455 100.312 20.7587C100.302 18.7237 100.771 16.911 101.719 15.3205C102.668 13.7301 103.992 12.4854 105.691 11.5864C107.4 10.6776 109.385 10.2281 111.647 10.238ZM111.692 15.2761C110.694 15.2761 109.805 15.5132 109.025 15.9873C108.254 16.4615 107.642 17.0987 107.187 17.8989C106.743 18.699 106.525 19.593 106.535 20.5809C106.535 21.5786 106.753 22.4776 107.187 23.2778C107.632 24.0681 108.234 24.7003 108.995 25.1745C109.766 25.6388 110.645 25.8709 111.633 25.8709C112.374 25.8709 113.06 25.7326 113.692 25.456C114.325 25.1794 114.873 24.7991 115.337 24.315C115.811 23.8211 116.182 23.2531 116.448 22.611C116.715 21.9688 116.849 21.2872 116.849 20.5661C116.839 19.6079 116.611 18.7287 116.167 17.9285C115.722 17.1283 115.11 16.4862 114.33 16.0022C113.549 15.5181 112.67 15.2761 111.692 15.2761Z" fill="#12141D"/>
<path opacity="0.4" d="M137.026 24.1789L131.232 45.7038H128.01L133.804 24.1789H137.026ZM138.828 43V29.5162H142.392V31.8952H142.55C142.831 31.1051 143.299 30.4819 143.954 30.0254C144.61 29.5689 145.394 29.3407 146.307 29.3407C147.232 29.3407 148.019 29.5718 148.668 30.0342C149.318 30.4906 149.751 31.111 149.968 31.8952H150.108C150.383 31.1227 150.881 30.5053 151.6 30.0429C152.326 29.5748 153.183 29.3407 154.173 29.3407C155.431 29.3407 156.452 29.7415 157.236 30.5433C158.026 31.3392 158.421 32.4687 158.421 33.9318V43H154.69V34.6692C154.69 33.9201 154.491 33.3583 154.094 32.9837C153.696 32.6092 153.198 32.4219 152.601 32.4219C151.922 32.4219 151.393 32.6384 151.012 33.0715C150.632 33.4987 150.442 34.0635 150.442 34.7658V43H146.816V34.5902C146.816 33.9289 146.626 33.4022 146.246 33.0101C145.871 32.618 145.376 32.4219 144.762 32.4219C144.346 32.4219 143.972 32.5273 143.638 32.7379C143.311 32.9428 143.05 33.2325 142.857 33.607C142.664 33.9757 142.567 34.4088 142.567 34.9062V43H138.828ZM167.468 43.2634C166.104 43.2634 164.925 42.9737 163.93 42.3943C162.941 41.8091 162.177 40.9956 161.639 39.9539C161.1 38.9063 160.831 37.6919 160.831 36.3108C160.831 34.9179 161.1 33.7006 161.639 32.6589C162.177 31.6114 162.941 30.7979 163.93 30.2185C164.925 29.6333 166.104 29.3407 167.468 29.3407C168.831 29.3407 170.007 29.6333 170.997 30.2185C171.991 30.7979 172.758 31.6114 173.296 32.6589C173.835 33.7006 174.104 34.9179 174.104 36.3108C174.104 37.6919 173.835 38.9063 173.296 39.9539C172.758 40.9956 171.991 41.8091 170.997 42.3943C170.007 42.9737 168.831 43.2634 167.468 43.2634ZM167.485 40.3665C168.105 40.3665 168.623 40.1909 169.039 39.8397C169.454 39.4827 169.768 38.997 169.978 38.3825C170.195 37.768 170.303 37.0687 170.303 36.2844C170.303 35.5002 170.195 34.8009 169.978 34.1864C169.768 33.5719 169.454 33.0862 169.039 32.7292C168.623 32.3722 168.105 32.1937 167.485 32.1937C166.859 32.1937 166.332 32.3722 165.905 32.7292C165.484 33.0862 165.165 33.5719 164.948 34.1864C164.737 34.8009 164.632 35.5002 164.632 36.2844C164.632 37.0687 164.737 37.768 164.948 38.3825C165.165 38.997 165.484 39.4827 165.905 39.8397C166.332 40.1909 166.859 40.3665 167.485 40.3665Z" fill="#12141D"/>
</svg>
