<svg width="118" height="118" viewBox="0 0 118 118" fill="none" xmlns="http://www.w3.org/2000/svg">
<path d="M113.083 88.5C113.083 92.6792 109.888 95.875 105.708 95.875H12.2917C8.11252 95.875 4.91669 92.6792 4.91669 88.5V29.5C4.91669 25.3208 8.11252 22.125 12.2917 22.125H105.708C109.888 22.125 113.083 25.3208 113.083 29.5V88.5Z" fill="#F44336"/>
<path d="M36.875 22.125H41.7917V95.875H36.875V22.125Z" fill="#FFD600"/>
<path d="M4.91669 56.542H113.083V61.4587H4.91669V56.542Z" fill="#FFD600"/>
<path d="M68.8333 81.125H93.4166V86.0417H68.8333V81.125Z" fill="#B71C1C"/>
<path d="M29.5 61.4583C22.6166 61.4583 17.2083 56.05 17.2083 49.1667C17.2083 42.2833 22.6166 36.875 29.5 36.875C36.3833 36.875 41.7916 42.2833 41.7916 49.1667H36.875C36.875 44.9875 33.6791 41.7917 29.5 41.7917C25.3208 41.7917 22.125 44.9875 22.125 49.1667C22.125 53.3458 25.3208 56.5417 29.5 56.5417V61.4583Z" fill="#FFD600"/>
<path d="M49.1667 61.4583V56.5417C53.3458 56.5417 56.5417 53.3458 56.5417 49.1667C56.5417 44.9875 53.3458 41.7917 49.1667 41.7917C44.9875 41.7917 41.7917 44.9875 41.7917 49.1667H36.875C36.875 42.2833 42.2833 36.875 49.1667 36.875C56.05 36.875 61.4583 42.2833 61.4583 49.1667C61.4583 56.05 56.05 61.4583 49.1667 61.4583Z" fill="#FFD600"/>
<path d="M37.7516 60.8828L40.9512 57.1497L58.1234 71.8681L54.9238 75.6012L37.7516 60.8828Z" fill="#FFD600"/>
<path d="M20.5472 71.8711L37.7132 57.1456L40.9144 60.8773L23.7484 75.6028L20.5472 71.8711Z" fill="#FFD600"/>
<path d="M68.8333 71.292H103.25V76.2087H68.8333V71.292Z" fill="#B71C1C"/>
</svg>
