<svg width="69" height="69" viewBox="0 0 69 69" fill="none" xmlns="http://www.w3.org/2000/svg">
<path d="M41.6875 40.2507C41.6875 42.6312 39.7569 44.5633 37.375 44.5633H18.6875C16.3056 44.5633 14.375 42.6312 14.375 40.2507V11.5001C14.375 9.11954 16.3056 7.1875 18.6875 7.1875H37.375C39.7569 7.1875 41.6875 9.11954 41.6875 11.5001V40.2507Z" fill="#FF5722"/>
<path d="M54.4008 45.0289L48.9455 32.5943C48.2684 30.7054 47.2808 29.0795 45.4308 28.3349C44.7178 28.069 43.4125 27.5069 41.6875 26.8672V40.2506C41.6875 42.6311 39.757 44.5632 37.375 44.5632H30.1832L27.3125 31.6556C26.8626 29.2779 25.7399 26.9894 22.011 27.3488C20.6166 27.4911 18.2807 28.828 18.8198 32.2867L21.5625 50.3248C23 58.9385 29.2431 61.8135 31.625 61.8135H47.4375L54.0299 47.9888C54.6509 47.1694 54.7846 45.8886 54.4008 45.0289Z" fill="#FFB74D"/>
<path d="M44.5625 44.563L43.125 37.3754C42.8935 36.3576 42.4192 35.4634 41.6875 34.9531V40.2504C41.6875 42.631 39.7569 44.563 37.375 44.563H30.1803L30.5023 46.0005C31.4453 49.5944 34.1866 48.8023 34.1866 48.8023L41.6875 47.4381C43.6195 47.0787 44.8327 46.1802 44.5625 44.563Z" fill="#E69329"/>
<path d="M25.7859 31.2061C26.013 32.7788 20.3205 33.5967 20.0948 32.0269C19.8677 30.4543 20.9602 28.998 22.5299 28.7695C24.104 28.5452 25.5602 29.6349 25.7859 31.2061Z" fill="#FFCDD2"/>
</svg>
