<svg width="16" height="23" viewBox="0 0 16 23" fill="none" xmlns="http://www.w3.org/2000/svg">
<path d="M3.93745 0.166992C2.90018 0.166992 2.04161 1.02556 2.04161 2.06283V12.8962C2.03978 13.0337 2.07291 13.1695 2.13789 13.2908L1.20584 15.2829C1.20404 15.2871 1.20228 15.2913 1.20055 15.2956C1.1112 15.4957 1.02923 15.6987 0.955106 15.9049C0.35917 17.5582 0.633468 19.3539 1.49995 20.8297V22.1045C1.49842 22.2122 1.51831 22.3191 1.55846 22.419C1.59861 22.5189 1.65822 22.6098 1.73382 22.6865C1.80941 22.7632 1.8995 22.824 1.99883 22.8656C2.09817 22.9072 2.20477 22.9286 2.31245 22.9286C2.42012 22.9286 2.52673 22.9072 2.62606 22.8656C2.72539 22.824 2.81548 22.7632 2.89108 22.6865C2.96668 22.6098 3.02628 22.5189 3.06643 22.419C3.10658 22.3191 3.12647 22.2122 3.12495 22.1045V20.6466C3.12495 20.4888 3.079 20.3344 2.9927 20.2023C2.25858 19.0755 2.04287 17.6777 2.48383 16.4551C2.54404 16.2876 2.61064 16.1217 2.68378 15.9578L6.03958 8.78605C6.0421 8.78079 6.04457 8.7755 6.04698 8.77018C6.22877 8.35873 6.43224 8.20111 6.58442 8.13753C6.7366 8.07396 6.87233 8.07995 7.04039 8.16398C7.37621 8.33189 7.79742 8.88897 7.61591 9.90324C7.61575 9.90416 7.61607 9.90443 7.61591 9.90536L6.8214 13.3204C6.8214 13.3211 6.8214 13.3218 6.8214 13.3225C6.61883 14.2059 6.49188 15.3244 6.68281 16.3673C6.69832 16.4755 6.73551 16.5795 6.79216 16.673C6.84881 16.7665 6.92375 16.8477 7.01249 16.9115C7.10124 16.9754 7.20196 17.0207 7.30863 17.0447C7.4153 17.0688 7.52572 17.071 7.63328 17.0514C7.74084 17.0317 7.84332 16.9905 7.9346 16.9303C8.02587 16.8701 8.10405 16.7921 8.16446 16.701C8.22488 16.6098 8.26627 16.5075 8.28618 16.3999C8.30608 16.2924 8.30408 16.182 8.2803 16.0753C8.21263 15.7057 8.21069 15.2482 8.24539 14.792H8.73733H10.9791C12.0164 14.792 12.8749 13.9334 12.8749 12.8962V9.60807L14.045 12.1852C14.3589 12.892 14.2589 13.713 13.7848 14.3244C11.3399 17.4777 9.27159 19.959 9.27159 19.959C9.14984 20.1051 9.0832 20.2893 9.08328 20.4795V22.1045C9.08176 22.2122 9.10165 22.3191 9.1418 22.419C9.18194 22.5189 9.24155 22.6098 9.31715 22.6865C9.39275 22.7632 9.48283 22.824 9.58216 22.8656C9.6815 22.9072 9.7881 22.9286 9.89578 22.9286C10.0035 22.9286 10.1101 22.9072 10.2094 22.8656C10.3087 22.824 10.3988 22.7632 10.4744 22.6865C10.55 22.6098 10.6096 22.5189 10.6498 22.419C10.6899 22.3191 10.7098 22.2122 10.7083 22.1045V20.7651C10.8709 20.5697 12.7073 18.3662 15.0691 15.3199C15.908 14.2381 16.0864 12.778 15.5304 11.5261C15.5293 11.524 15.5283 11.5219 15.5272 11.5198L12.8749 5.67887V2.06283C12.8749 1.02556 12.0164 0.166992 10.9791 0.166992H3.93745ZM3.93745 1.79199H10.9791C11.1389 1.79199 11.2499 1.90301 11.2499 2.06283V5.76668C11.2451 5.8177 11.2451 5.86907 11.2499 5.92008V12.8962C11.2499 13.056 11.1389 13.167 10.9791 13.167H8.73733H8.52574L9.20706 10.2333C9.21022 10.22 9.21304 10.2066 9.21552 10.1931C9.49916 8.61614 8.85729 7.25541 7.7672 6.71037C7.49468 6.57411 7.19135 6.49387 6.8817 6.47868C6.57205 6.46348 6.25639 6.51383 5.95812 6.63843C5.36157 6.88763 4.87143 7.40963 4.56057 8.1132L3.66661 10.0238V2.06283C3.66661 1.90301 3.77763 1.79199 3.93745 1.79199Z" fill="#98A2B3"/>
</svg>
