<svg width="265" height="263" viewBox="0 0 265 263" fill="none" xmlns="http://www.w3.org/2000/svg">
<path d="M237.14 191.869C247.663 173.643 253.202 152.967 253.202 131.921C253.202 110.875 247.663 90.2002 237.14 71.9739C226.617 53.7475 211.481 38.6122 193.255 28.0893C175.029 17.5663 154.353 12.0264 133.307 12.0264C112.262 12.0264 91.5863 17.5663 73.36 28.0893C55.1336 38.6122 39.9983 53.7475 29.4754 71.9739C18.9524 90.2002 13.4125 110.875 13.4125 131.921C13.4125 152.967 18.9524 173.643 29.4754 191.869L57.2509 175.833C49.5428 162.482 45.4849 147.337 45.4849 131.921C45.4849 116.505 49.5428 101.361 57.2509 88.0101C64.9589 74.6594 76.0455 63.5728 89.3962 55.8648C102.747 48.1567 117.891 44.0988 133.307 44.0988C148.724 44.0988 163.868 48.1567 177.219 55.8648C190.57 63.5728 201.656 74.6594 209.364 88.0101C217.072 101.361 221.13 116.505 221.13 131.921C221.13 147.337 217.072 162.482 209.364 175.833L237.14 191.869Z" fill="#FECDCA"/>
<path d="M29.4755 191.869C16.8062 169.925 11.4148 144.531 14.0753 119.333C16.7358 94.1342 27.3113 70.4264 44.2839 51.6121C61.2565 32.7978 83.7535 19.8445 108.546 14.6113C128.084 10.4872 148.256 11.3249 167.248 16.9306C175.742 19.4378 179.347 29.0375 175.73 37.1215C172.112 45.2056 162.633 48.6671 154.027 46.5777C141.345 43.4993 128.069 43.2695 115.17 45.9923C97.0094 49.8255 80.5305 59.3138 68.0981 73.0952C55.6658 86.8766 47.9193 104.242 45.9705 122.7C44.0217 141.158 47.9708 159.759 57.251 175.833L29.4755 191.869Z" fill="url(#paint0_linear_8659_17250)"/>
<path opacity="0.4" d="M246.237 196.486C257.437 176.577 263.216 154.076 262.994 131.233C262.772 108.391 256.558 86.0062 244.973 66.318C233.388 46.6298 216.838 30.3276 196.977 19.041C177.116 7.75438 154.641 1.87889 131.797 2.00189C108.954 2.12489 86.5429 8.24206 66.8049 19.7419C47.0668 31.2417 30.6931 47.7212 19.3208 67.533C7.94842 87.3448 1.97583 109.795 2.00007 132.638C2.02432 155.482 8.04454 177.919 19.4589 197.707" stroke="#C01048" stroke-width="2.24355" stroke-miterlimit="2.79297" stroke-dasharray="1.5 1.5"/>
<path opacity="0.4" d="M191.847 168.258C197.798 157.679 200.868 145.724 200.75 133.588C200.632 121.451 197.331 109.558 191.175 99.0971C185.02 88.6364 176.227 79.9747 165.674 73.978C155.122 67.9812 143.18 64.8595 131.043 64.9248C118.906 64.9902 106.999 68.2403 96.5116 74.3504C86.0245 80.4604 77.3249 89.2163 71.2825 99.7426C65.2402 110.269 62.0669 122.197 62.0798 134.334C62.0926 146.472 65.2913 158.393 71.3559 168.906" stroke="#FEA3B4" stroke-width="2.16678" stroke-miterlimit="2.79297"/>
<circle cx="132.861" cy="153.762" r="10.1116" fill="#FDA29B"/>
<path d="M138.196 154.858C137.477 157.797 134.442 159.533 131.545 158.663C128.702 157.809 127.12 154.782 128.043 151.961L171.141 20.1455L138.196 154.858Z" fill="#F83D4B"/>
<path d="M135.75 153.402C135.75 154.798 134.618 155.93 133.222 155.93C131.826 155.93 130.694 154.798 130.694 153.402C130.694 152.006 131.826 150.874 133.222 150.874C134.618 150.874 135.75 152.006 135.75 153.402Z" fill="#FDA29B"/>
<path d="M87.098 218.727V191.455H88.8452V218.727H87.098ZM91.7322 200.457C91.647 199.597 91.2813 198.93 90.6349 198.454C89.9886 197.978 89.1115 197.74 88.0036 197.74C87.2507 197.74 86.6151 197.847 86.0966 198.06C85.5781 198.266 85.1804 198.553 84.9034 198.923C84.6335 199.292 84.4986 199.711 84.4986 200.18C84.4844 200.57 84.5661 200.911 84.7436 201.202C84.9283 201.494 85.1804 201.746 85.5 201.959C85.8196 202.165 86.1889 202.346 86.608 202.502C87.027 202.651 87.4744 202.779 87.9503 202.886L89.9105 203.354C90.8622 203.567 91.7358 203.852 92.5312 204.207C93.3267 204.562 94.0156 204.999 94.598 205.517C95.1804 206.036 95.6314 206.646 95.951 207.349C96.2777 208.053 96.4446 208.859 96.4517 209.768C96.4446 211.103 96.1037 212.261 95.429 213.241C94.7614 214.214 93.7955 214.97 92.5312 215.51C91.2741 216.043 89.7578 216.309 87.9822 216.309C86.2209 216.309 84.6868 216.039 83.38 215.499C82.0803 214.96 81.0646 214.161 80.3331 213.102C79.6087 212.037 79.2287 210.719 79.1932 209.15H83.657C83.7067 209.881 83.9162 210.492 84.2855 210.982C84.6619 211.465 85.1626 211.831 85.7876 212.08C86.4197 212.321 87.1335 212.442 87.929 212.442C88.7102 212.442 89.3885 212.328 89.9638 212.101C90.5462 211.874 90.9972 211.558 91.3168 211.153C91.6364 210.748 91.7962 210.283 91.7962 209.757C91.7962 209.267 91.6506 208.855 91.3594 208.521C91.0753 208.187 90.6563 207.903 90.1023 207.669C89.5554 207.435 88.8842 207.222 88.0888 207.03L85.7131 206.433C83.8736 205.986 82.4212 205.286 81.3558 204.335C80.2905 203.383 79.7614 202.101 79.7685 200.489C79.7614 199.168 80.1129 198.013 80.8232 197.026C81.5405 196.039 82.5241 195.268 83.7741 194.714C85.0241 194.161 86.4446 193.884 88.0355 193.884C89.6548 193.884 91.0682 194.161 92.2756 194.714C93.4901 195.268 94.4347 196.039 95.1094 197.026C95.7841 198.013 96.1321 199.157 96.1534 200.457H91.7322ZM107.491 216.298C105.9 216.298 104.483 216.025 103.241 215.478C102.005 214.924 101.028 214.164 100.311 213.198C99.6007 212.225 99.2349 211.103 99.2136 209.832H103.858C103.887 210.364 104.061 210.833 104.381 211.238C104.707 211.636 105.14 211.945 105.68 212.165C106.22 212.385 106.827 212.495 107.502 212.495C108.205 212.495 108.827 212.371 109.366 212.122C109.906 211.874 110.329 211.529 110.634 211.089C110.939 210.648 111.092 210.141 111.092 209.565C111.092 208.983 110.929 208.468 110.602 208.021C110.282 207.566 109.821 207.211 109.217 206.955C108.621 206.7 107.91 206.572 107.086 206.572H105.052V203.184H107.086C107.782 203.184 108.397 203.063 108.93 202.822C109.469 202.58 109.888 202.246 110.187 201.82C110.485 201.387 110.634 200.883 110.634 200.308C110.634 199.761 110.503 199.281 110.24 198.869C109.984 198.45 109.622 198.124 109.153 197.889C108.692 197.655 108.152 197.538 107.534 197.538C106.909 197.538 106.337 197.651 105.819 197.879C105.3 198.099 104.885 198.415 104.572 198.827C104.26 199.239 104.093 199.722 104.072 200.276H99.6504C99.6717 199.018 100.03 197.911 100.726 196.952C101.422 195.993 102.36 195.244 103.539 194.704C104.725 194.157 106.064 193.884 107.555 193.884C109.061 193.884 110.378 194.157 111.508 194.704C112.637 195.251 113.514 195.989 114.139 196.92C114.771 197.843 115.084 198.88 115.077 200.031C115.084 201.252 114.704 202.271 113.937 203.088C113.177 203.905 112.186 204.423 110.964 204.643V204.814C112.569 205.02 113.791 205.577 114.629 206.487C115.474 207.388 115.893 208.518 115.886 209.874C115.893 211.117 115.535 212.222 114.81 213.188C114.093 214.153 113.102 214.913 111.838 215.467C110.574 216.021 109.125 216.298 107.491 216.298ZM127.171 216.298C125.665 216.298 124.323 216.021 123.144 215.467C121.972 214.913 121.042 214.15 120.353 213.177C119.664 212.204 119.305 211.089 119.277 209.832H123.751C123.801 210.677 124.156 211.362 124.816 211.888C125.477 212.413 126.262 212.676 127.171 212.676C127.895 212.676 128.534 212.516 129.088 212.197C129.65 211.87 130.086 211.419 130.399 210.844C130.718 210.261 130.878 209.594 130.878 208.841C130.878 208.074 130.715 207.399 130.388 206.817C130.069 206.234 129.625 205.78 129.056 205.453C128.488 205.126 127.838 204.96 127.107 204.952C126.468 204.952 125.846 205.084 125.243 205.347C124.646 205.609 124.181 205.968 123.847 206.423L119.745 205.688L120.779 194.182H134.117V197.953H124.582L124.017 203.418H124.145C124.529 202.879 125.108 202.431 125.882 202.076C126.656 201.721 127.522 201.543 128.481 201.543C129.795 201.543 130.967 201.852 131.997 202.47C133.027 203.088 133.84 203.937 134.436 205.016C135.033 206.089 135.328 207.325 135.321 208.724C135.328 210.194 134.987 211.501 134.298 212.644C133.616 213.781 132.661 214.675 131.432 215.329C130.211 215.975 128.79 216.298 127.171 216.298ZM140.53 216.277C139.827 216.277 139.223 216.028 138.719 215.531C138.222 215.027 137.973 214.423 137.973 213.72C137.973 213.024 138.222 212.428 138.719 211.93C139.223 211.433 139.827 211.185 140.53 211.185C141.212 211.185 141.809 211.433 142.32 211.93C142.831 212.428 143.087 213.024 143.087 213.72C143.087 214.189 142.966 214.619 142.725 215.009C142.49 215.393 142.181 215.702 141.798 215.936C141.414 216.163 140.992 216.277 140.53 216.277ZM154.446 216.479C152.614 216.472 151.037 216.021 149.716 215.126C148.402 214.232 147.39 212.935 146.68 211.238C145.977 209.54 145.629 207.499 145.636 205.112C145.636 202.733 145.987 200.705 146.691 199.029C147.401 197.353 148.413 196.078 149.727 195.205C151.048 194.324 152.621 193.884 154.446 193.884C156.271 193.884 157.841 194.324 159.155 195.205C160.476 196.085 161.492 197.364 162.202 199.04C162.912 200.709 163.264 202.733 163.257 205.112C163.257 207.506 162.901 209.551 162.191 211.249C161.488 212.946 160.48 214.242 159.166 215.137C157.852 216.032 156.279 216.479 154.446 216.479ZM154.446 212.655C155.696 212.655 156.694 212.026 157.44 210.769C158.186 209.512 158.555 207.626 158.548 205.112C158.548 203.457 158.377 202.08 158.036 200.979C157.703 199.878 157.227 199.05 156.609 198.496C155.998 197.942 155.277 197.665 154.446 197.665C153.203 197.665 152.209 198.287 151.463 199.53C150.718 200.773 150.341 202.634 150.334 205.112C150.334 206.788 150.501 208.188 150.835 209.31C151.176 210.425 151.655 211.263 152.273 211.824C152.891 212.378 153.615 212.655 154.446 212.655ZM175.1 216.479C173.268 216.472 171.691 216.021 170.37 215.126C169.056 214.232 168.044 212.935 167.334 211.238C166.631 209.54 166.283 207.499 166.29 205.112C166.29 202.733 166.642 200.705 167.345 199.029C168.055 197.353 169.067 196.078 170.381 195.205C171.702 194.324 173.275 193.884 175.1 193.884C176.926 193.884 178.495 194.324 179.809 195.205C181.13 196.085 182.146 197.364 182.856 199.04C183.566 200.709 183.918 202.733 183.911 205.112C183.911 207.506 183.556 209.551 182.846 211.249C182.142 212.946 181.134 214.242 179.82 215.137C178.506 216.032 176.933 216.479 175.1 216.479ZM175.1 212.655C176.35 212.655 177.348 212.026 178.094 210.769C178.84 209.512 179.209 207.626 179.202 205.112C179.202 203.457 179.032 202.08 178.691 200.979C178.357 199.878 177.881 199.05 177.263 198.496C176.652 197.942 175.931 197.665 175.1 197.665C173.858 197.665 172.863 198.287 172.118 199.53C171.372 200.773 170.995 202.634 170.988 205.112C170.988 206.788 171.155 208.188 171.489 209.31C171.83 210.425 172.309 211.263 172.927 211.824C173.545 212.378 174.27 212.655 175.1 212.655Z" fill="url(#paint1_linear_8659_17250)"/>
<path d="M96.9588 230.273H98.5568L101.335 237.057H101.438L104.216 230.273H105.814V239H104.561V232.685H104.48L101.906 238.987H100.866L98.2926 232.68H98.2116V239H96.9588V230.273ZM108.431 241.455C108.241 241.455 108.068 241.439 107.912 241.408C107.755 241.379 107.639 241.348 107.562 241.314L107.869 240.27C108.102 240.332 108.309 240.359 108.491 240.351C108.673 240.342 108.833 240.274 108.973 240.146C109.115 240.018 109.24 239.81 109.348 239.52L109.505 239.085L107.11 232.455H108.474L110.132 237.534H110.2L111.858 232.455H113.225L110.528 239.874C110.403 240.214 110.244 240.503 110.051 240.739C109.858 240.977 109.627 241.156 109.36 241.276C109.093 241.395 108.784 241.455 108.431 241.455ZM117.701 239V230.273H120.812C121.488 230.273 122.049 230.389 122.495 230.622C122.944 230.855 123.279 231.178 123.501 231.589C123.722 231.999 123.833 232.472 123.833 233.009C123.833 233.543 123.721 234.013 123.496 234.419C123.275 234.822 122.94 235.136 122.491 235.361C122.045 235.585 121.484 235.697 120.808 235.697H118.451V234.564H120.688C121.114 234.564 121.461 234.503 121.728 234.381C121.998 234.259 122.195 234.081 122.32 233.848C122.445 233.615 122.508 233.335 122.508 233.009C122.508 232.679 122.444 232.393 122.316 232.152C122.191 231.911 121.994 231.726 121.724 231.598C121.457 231.467 121.106 231.402 120.671 231.402H119.018V239H117.701ZM122.009 235.062L124.165 239H122.665L120.552 235.062H122.009ZM128.072 239.132C127.427 239.132 126.872 238.994 126.406 238.719C125.943 238.44 125.585 238.05 125.332 237.547C125.082 237.041 124.957 236.449 124.957 235.77C124.957 235.099 125.082 234.509 125.332 233.997C125.585 233.486 125.937 233.087 126.389 232.8C126.843 232.513 127.375 232.369 127.983 232.369C128.352 232.369 128.71 232.43 129.056 232.553C129.403 232.675 129.714 232.866 129.99 233.128C130.265 233.389 130.483 233.729 130.642 234.146C130.801 234.561 130.88 235.065 130.88 235.659V236.111H125.677V235.156H129.632C129.632 234.821 129.564 234.524 129.427 234.266C129.291 234.004 129.099 233.798 128.852 233.648C128.608 233.497 128.321 233.422 127.991 233.422C127.633 233.422 127.321 233.51 127.054 233.686C126.789 233.859 126.585 234.087 126.44 234.368C126.298 234.646 126.227 234.949 126.227 235.276V236.021C126.227 236.459 126.304 236.831 126.457 237.138C126.613 237.445 126.831 237.679 127.109 237.841C127.387 238 127.713 238.08 128.085 238.08C128.326 238.08 128.547 238.045 128.745 237.977C128.944 237.906 129.116 237.801 129.261 237.662C129.406 237.523 129.517 237.351 129.593 237.146L130.799 237.364C130.703 237.719 130.529 238.03 130.279 238.297C130.032 238.561 129.721 238.767 129.346 238.915C128.974 239.06 128.549 239.132 128.072 239.132ZM133.701 239L131.775 232.455H133.092L134.375 237.261H134.439L135.725 232.455H137.042L138.321 237.24H138.385L139.659 232.455H140.975L139.054 239H137.754L136.424 234.274H136.326L134.997 239H133.701ZM144.089 239.145C143.675 239.145 143.3 239.068 142.964 238.915C142.629 238.759 142.364 238.533 142.168 238.237C141.974 237.942 141.878 237.58 141.878 237.151C141.878 236.781 141.949 236.477 142.091 236.239C142.233 236 142.425 235.811 142.666 235.672C142.908 235.533 143.178 235.428 143.476 235.357C143.774 235.286 144.078 235.232 144.388 235.195C144.78 235.149 145.098 235.112 145.342 235.084C145.587 235.053 145.764 235.003 145.875 234.935C145.986 234.866 146.041 234.756 146.041 234.602V234.572C146.041 234.2 145.936 233.912 145.726 233.707C145.518 233.503 145.209 233.401 144.797 233.401C144.368 233.401 144.03 233.496 143.783 233.686C143.538 233.874 143.369 234.082 143.276 234.312L142.078 234.04C142.22 233.642 142.428 233.321 142.7 233.077C142.976 232.83 143.293 232.651 143.651 232.54C144.009 232.426 144.385 232.369 144.78 232.369C145.041 232.369 145.318 232.401 145.611 232.463C145.906 232.523 146.182 232.634 146.438 232.795C146.696 232.957 146.908 233.189 147.072 233.49C147.237 233.788 147.32 234.176 147.32 234.653V239H146.075V238.105H146.024C145.942 238.27 145.818 238.432 145.653 238.591C145.489 238.75 145.277 238.882 145.018 238.987C144.76 239.092 144.45 239.145 144.089 239.145ZM144.366 238.122C144.719 238.122 145.02 238.053 145.27 237.913C145.523 237.774 145.714 237.592 145.845 237.368C145.979 237.141 146.045 236.898 146.045 236.639V235.795C146 235.841 145.912 235.884 145.781 235.923C145.653 235.96 145.507 235.993 145.342 236.021C145.178 236.047 145.017 236.071 144.861 236.094C144.705 236.114 144.574 236.131 144.469 236.145C144.222 236.176 143.996 236.229 143.791 236.303C143.589 236.376 143.428 236.483 143.305 236.622C143.186 236.759 143.126 236.94 143.126 237.168C143.126 237.483 143.243 237.722 143.476 237.884C143.709 238.043 144.006 238.122 144.366 238.122ZM149.017 239V232.455H150.248V233.494H150.316C150.436 233.142 150.646 232.865 150.947 232.663C151.251 232.459 151.595 232.357 151.978 232.357C152.058 232.357 152.152 232.359 152.26 232.365C152.37 232.371 152.457 232.378 152.52 232.386V233.605C152.468 233.591 152.377 233.575 152.247 233.558C152.116 233.538 151.985 233.528 151.855 233.528C151.554 233.528 151.285 233.592 151.049 233.72C150.816 233.845 150.632 234.02 150.495 234.244C150.359 234.466 150.291 234.719 150.291 235.003V239H149.017ZM155.838 239.128C155.31 239.128 154.838 238.993 154.423 238.723C154.011 238.45 153.688 238.062 153.452 237.56C153.219 237.054 153.102 236.447 153.102 235.74C153.102 235.033 153.22 234.428 153.456 233.925C153.695 233.422 154.021 233.037 154.436 232.77C154.851 232.503 155.321 232.369 155.847 232.369C156.253 232.369 156.58 232.438 156.827 232.574C157.077 232.707 157.27 232.864 157.406 233.043C157.545 233.222 157.653 233.379 157.73 233.516H157.807V230.273H159.081V239H157.837V237.982H157.73C157.653 238.121 157.543 238.28 157.398 238.459C157.256 238.638 157.06 238.794 156.81 238.928C156.56 239.061 156.236 239.128 155.838 239.128ZM156.119 238.041C156.486 238.041 156.795 237.945 157.048 237.751C157.304 237.555 157.497 237.284 157.628 236.938C157.761 236.591 157.828 236.187 157.828 235.727C157.828 235.273 157.763 234.875 157.632 234.534C157.501 234.193 157.31 233.928 157.057 233.737C156.804 233.547 156.491 233.452 156.119 233.452C155.736 233.452 155.416 233.551 155.161 233.75C154.905 233.949 154.712 234.22 154.581 234.564C154.453 234.908 154.389 235.295 154.389 235.727C154.389 236.165 154.455 236.558 154.585 236.908C154.716 237.257 154.909 237.534 155.165 237.739C155.423 237.94 155.741 238.041 156.119 238.041ZM165.804 234.053L164.65 234.257C164.601 234.109 164.525 233.969 164.419 233.835C164.317 233.702 164.178 233.592 164.002 233.507C163.826 233.422 163.605 233.379 163.341 233.379C162.98 233.379 162.679 233.46 162.438 233.622C162.196 233.781 162.076 233.987 162.076 234.24C162.076 234.459 162.157 234.635 162.319 234.768C162.48 234.902 162.742 235.011 163.103 235.097L164.142 235.335C164.745 235.474 165.194 235.689 165.489 235.979C165.784 236.268 165.932 236.645 165.932 237.108C165.932 237.5 165.819 237.849 165.591 238.156C165.367 238.46 165.053 238.699 164.65 238.872C164.249 239.045 163.784 239.132 163.256 239.132C162.523 239.132 161.925 238.976 161.462 238.663C160.999 238.348 160.715 237.901 160.61 237.321L161.841 237.134C161.918 237.455 162.076 237.697 162.314 237.862C162.553 238.024 162.864 238.105 163.248 238.105C163.665 238.105 163.999 238.018 164.249 237.845C164.499 237.669 164.624 237.455 164.624 237.202C164.624 236.997 164.547 236.825 164.394 236.686C164.243 236.547 164.012 236.442 163.699 236.371L162.591 236.128C161.98 235.989 161.529 235.767 161.236 235.463C160.946 235.159 160.801 234.774 160.801 234.308C160.801 233.922 160.909 233.584 161.125 233.294C161.341 233.004 161.64 232.778 162.02 232.616C162.401 232.452 162.837 232.369 163.328 232.369C164.036 232.369 164.593 232.523 164.999 232.83C165.405 233.134 165.674 233.541 165.804 234.053Z" fill="#667085"/>
<defs>
<linearGradient id="paint0_linear_8659_17250" x1="36.5249" y1="132.095" x2="164.365" y2="23.0338" gradientUnits="userSpaceOnUse">
<stop stop-color="#C42D65"/>
<stop offset="1" stop-color="#D13751"/>
</linearGradient>
<linearGradient id="paint1_linear_8659_17250" x1="107.7" y1="212.273" x2="178.859" y2="179.055" gradientUnits="userSpaceOnUse">
<stop stop-color="#C42E66"/>
<stop offset="1" stop-color="#D23852"/>
</linearGradient>
</defs>
</svg>
