<svg width="92" height="92" viewBox="0 0 92 92" fill="none" xmlns="http://www.w3.org/2000/svg">
<path d="M46 84.3332C67.1696 84.3332 84.3334 67.1694 84.3334 45.9998C84.3334 24.8303 67.1696 7.6665 46 7.6665C24.8304 7.6665 7.66669 24.8303 7.66669 45.9998C7.66669 67.1694 24.8304 84.3332 46 84.3332Z" fill="url(#paint0_linear_8823_22078)"/>
<path d="M30.6667 49.8333C34.9008 49.8333 38.3333 46.4008 38.3333 42.1667C38.3333 37.9325 34.9008 34.5 30.6667 34.5C26.4325 34.5 23 37.9325 23 42.1667C23 46.4008 26.4325 49.8333 30.6667 49.8333Z" fill="white"/>
<path d="M61.3334 49.8333C65.5675 49.8333 69 46.4008 69 42.1667C69 37.9325 65.5675 34.5 61.3334 34.5C57.0992 34.5 53.6667 37.9325 53.6667 42.1667C53.6667 46.4008 57.0992 49.8333 61.3334 49.8333Z" fill="white"/>
<path d="M30.6666 46.0002C32.7837 46.0002 34.5 44.2839 34.5 42.1668C34.5 40.0497 32.7837 38.3335 30.6666 38.3335C28.5496 38.3335 26.8333 40.0497 26.8333 42.1668C26.8333 44.2839 28.5496 46.0002 30.6666 46.0002Z" fill="#343434"/>
<path d="M61.3333 46.0002C63.4504 46.0002 65.1667 44.2839 65.1667 42.1668C65.1667 40.0497 63.4504 38.3335 61.3333 38.3335C59.2162 38.3335 57.5 40.0497 57.5 42.1668C57.5 44.2839 59.2162 46.0002 61.3333 46.0002Z" fill="#343434"/>
<path d="M59.4166 68.3328C58.9662 68.3328 58.5158 68.1757 58.1516 67.8537C54.7783 64.8848 50.4639 63.2498 46 63.2498C41.5361 63.2498 37.2216 64.8848 33.8502 67.8537C33.0548 68.5533 31.8435 68.4766 31.1458 67.6812C30.4462 66.8877 30.5229 65.6763 31.3183 64.9768C35.3893 61.3907 40.6046 59.4165 46 59.4165C51.3954 59.4165 56.6106 61.3907 60.6836 64.9768C61.479 65.6763 61.5556 66.8877 60.8561 67.6812C60.4766 68.1124 59.9476 68.3328 59.4166 68.3328Z" fill="#343434"/>
<defs>
<linearGradient id="paint0_linear_8823_22078" x1="19.2261" y1="19.2259" x2="73.0442" y2="73.044" gradientUnits="userSpaceOnUse">
<stop stop-color="#FEDE00"/>
<stop offset="0.519" stop-color="#FECC00"/>
<stop offset="1" stop-color="#FFB700"/>
</linearGradient>
</defs>
</svg>
