<svg width="18" height="21" viewBox="0 0 18 21" fill="none" xmlns="http://www.w3.org/2000/svg">
<path d="M9 0.5C6.24759 0.5 4 2.74759 4 5.5V6H2.75C1.51625 6 0.5 7.01625 0.5 8.25V18.75C0.5 19.9838 1.51625 21 2.75 21H15.25C16.4838 21 17.5 19.9838 17.5 18.75V8.25C17.5 7.01625 16.4838 6 15.25 6H14V5.5C14 2.74759 11.7524 0.5 9 0.5ZM9 2C10.9416 2 12.5 3.55841 12.5 5.5V6H5.5V5.5C5.5 3.55841 7.05841 2 9 2ZM2.75 7.5H4H14H15.25C15.6732 7.5 16 7.82675 16 8.25V18.75C16 19.1733 15.6732 19.5 15.25 19.5H2.75C2.32675 19.5 2 19.1733 2 18.75V8.25C2 7.82675 2.32675 7.5 2.75 7.5ZM9 9C6.5236 9 4.5 11.0236 4.5 13.5C4.5 15.9764 6.5236 18 9 18C11.4764 18 13.5 15.9764 13.5 13.5C13.5 11.0236 11.4764 9 9 9ZM9 10.5C10.6657 10.5 12 11.8343 12 13.5C12 15.1657 10.6657 16.5 9 16.5C7.33426 16.5 6 15.1657 6 13.5C6 11.8343 7.33426 10.5 9 10.5ZM8.5752 11.5449C7.6752 11.7399 7 12.54 7 13.5C7 14.605 7.895 15.5 9 15.5C10.105 15.5 11 14.605 11 13.5C11 13.38 10.9898 13.2595 10.9648 13.1445C10.7048 13.3645 10.37 13.5 10 13.5C9.17 13.5 8.5 12.83 8.5 12C8.5 11.84 8.5252 11.6849 8.5752 11.5449Z" fill="url(#paint0_linear_10846_9401)"/>
<defs>
<linearGradient id="paint0_linear_10846_9401" x1="5.175" y1="14.6738" x2="18.5684" y2="12.8496" gradientUnits="userSpaceOnUse">
<stop stop-color="#C42E66"/>
<stop offset="1" stop-color="#D23852"/>
</linearGradient>
</defs>
</svg>
