<svg width="23" height="23" viewBox="0 0 23 23" fill="none" xmlns="http://www.w3.org/2000/svg">
<path d="M11.7599 0.477539C5.77737 0.477539 0.910095 5.34481 0.910095 11.3274C0.910095 17.3099 5.77737 22.1772 11.7599 22.1772C17.7425 22.1772 22.6098 17.3099 22.6098 11.3274C22.6098 5.34481 17.7425 0.477539 11.7599 0.477539ZM11.7599 2.10501C16.8629 2.10501 20.9823 6.22437 20.9823 11.3274C20.9823 16.4304 16.8629 20.5497 11.7599 20.5497C6.65692 20.5497 2.53757 16.4304 2.53757 11.3274C2.53757 6.22437 6.65692 2.10501 11.7599 2.10501ZM15.8127 8.065C15.6014 8.07116 15.4007 8.15932 15.2533 8.31082L10.4037 13.1604L8.26658 11.0233C8.1916 10.9452 8.10178 10.8828 8.0024 10.8399C7.90302 10.7969 7.79607 10.7742 7.68781 10.7731C7.57956 10.772 7.47216 10.7926 7.37193 10.8335C7.2717 10.8744 7.18064 10.9349 7.10408 11.0115C7.02753 11.088 6.96702 11.1791 6.9261 11.2793C6.88518 11.3795 6.86466 11.4869 6.86576 11.5952C6.86687 11.7035 6.88956 11.8104 6.93251 11.9098C6.97546 12.0092 7.03781 12.099 7.1159 12.174L9.82836 14.8864C9.98097 15.039 10.1879 15.1247 10.4037 15.1247C10.6195 15.1247 10.8264 15.039 10.979 14.8864L16.404 9.4615C16.5213 9.34716 16.6015 9.20005 16.6339 9.03942C16.6663 8.87878 16.6495 8.71211 16.5856 8.5612C16.5217 8.4103 16.4137 8.2822 16.2758 8.19366C16.1379 8.10513 15.9765 8.06029 15.8127 8.065Z" fill="url(#paint0_linear_8768_19920)"/>
<defs>
<linearGradient id="paint0_linear_8768_19920" x1="6.8775" y1="15.4808" x2="23.8333" y2="12.6958" gradientUnits="userSpaceOnUse">
<stop stop-color="#C42E66"/>
<stop offset="1" stop-color="#D23852"/>
</linearGradient>
</defs>
</svg>
