<svg width="94" height="94" viewBox="0 0 94 94" fill="none" xmlns="http://www.w3.org/2000/svg">
<path d="M68.0794 7.83301H25.9204C24.436 7.83301 23.0808 8.67117 22.417 9.99892L19.5833 15.6663H74.4166L71.5829 9.99892C70.919 8.67117 69.5619 7.83301 68.0794 7.83301Z" fill="#F83D4B"/>
<path d="M74.4167 15.667H19.5834C17.4195 15.667 15.6667 17.4197 15.6667 19.5837V21.542H78.3334V19.5837C78.3334 17.4197 76.5807 15.667 74.4167 15.667Z" fill="#E4E7EC"/>
<path d="M75.3959 21.542L73.8097 50.9366L72.2038 80.5074C72.1059 82.5832 70.3826 84.2087 68.3068 84.2087H25.6934C23.6176 84.2087 21.8942 82.5832 21.7963 80.5074L18.6042 21.542H75.3959Z" fill="url(#paint0_linear_8823_20797)"/>
<path opacity="0.3" d="M73.8097 50.9365L72.2038 80.5074C72.1059 82.5832 70.3826 84.2086 68.3068 84.2086H53.0317C51.6805 81.2319 50.9167 77.9224 50.9167 74.4169C50.9167 61.629 61.1001 51.2499 73.8097 50.9365Z" fill="url(#paint1_radial_8823_20797)"/>
<path d="M74.4166 93.9997C85.2322 93.9997 93.9999 85.2319 93.9999 74.4163C93.9999 63.6008 85.2322 54.833 74.4166 54.833C63.601 54.833 54.8333 63.6008 54.8333 74.4163C54.8333 85.2319 63.601 93.9997 74.4166 93.9997Z" fill="#F83D4B"/>
<path d="M81.3413 66.1077L82.7259 67.4922C83.1077 67.8741 83.1077 68.4949 82.7259 68.8768L68.8785 82.7242C68.4966 83.106 67.8758 83.106 67.4939 82.7242L66.1094 81.3396C65.7275 80.9577 65.7275 80.3369 66.1094 79.9551L79.9568 66.1077C80.3387 65.7258 80.9575 65.7258 81.3413 66.1077Z" fill="white"/>
<path d="M82.7259 81.3416L81.3413 82.7261C80.9594 83.108 80.3387 83.108 79.9568 82.7261L66.1094 68.8787C65.7275 68.4969 65.7275 67.8761 66.1094 67.4942L67.4939 66.1096C67.8758 65.7278 68.4966 65.7278 68.8785 66.1096L82.7259 79.957C83.1077 80.3389 83.1077 80.9577 82.7259 81.3416Z" fill="white"/>
<defs>
<linearGradient id="paint0_linear_8823_20797" x1="34.222" y1="64.8701" x2="78.8073" y2="58.2335" gradientUnits="userSpaceOnUse">
<stop stop-color="#C42E66"/>
<stop offset="1" stop-color="#D23852"/>
</linearGradient>
<radialGradient id="paint1_radial_8823_20797" cx="0" cy="0" r="1" gradientUnits="userSpaceOnUse" gradientTransform="translate(74.407 74.4306) scale(23.5803 23.5803)">
<stop offset="0.348"/>
<stop offset="0.936" stop-opacity="0.098"/>
<stop offset="1" stop-opacity="0"/>
</radialGradient>
</defs>
</svg>
